<svg width="64" height="65" viewBox="0 0 64 65" fill="none" xmlns="http://www.w3.org/2000/svg">
<path fill-rule="evenodd" clip-rule="evenodd" d="M45.5487 2.87279C45.5454 1.38664 44.4264 0.272028 43.0112 0.275398C41.5632 0.278784 40.4771 1.3934 40.4804 2.87955L40.4837 5.24388L20.9346 5.2709L20.9313 2.90657C20.928 1.42042 19.8419 0.305804 18.3939 0.309182C16.9458 0.309182 15.8597 1.42717 15.863 2.91333L15.8663 5.44654C6.68415 6.30108 0.832583 12.6274 0.845725 22.4191L0.881949 47.3952C0.895114 58.0313 7.5497 64.7122 18.0187 64.6988L41.2437 64.6682C36.7062 61.8224 33.7005 56.8535 33.7005 51.1996C33.7005 47.8085 34.7817 44.6639 36.6262 42.076C36.2581 41.8134 36.0181 41.3828 36.0181 40.8961V36.2065C36.0181 35.4066 36.6665 34.7582 37.4663 34.7582H42.156C42.9559 34.7582 43.6043 35.4066 43.6043 36.2065V36.5038C45.5963 35.6646 47.7927 35.1996 50.1005 35.1996C54.205 35.1996 57.9572 36.6705 60.8336 39.1016L60.8095 22.2063C60.7996 12.4787 54.7341 6.13557 45.552 5.40601L45.5487 2.87279ZM20.9412 10.4724L40.4903 10.4454L40.4935 13.1813C40.4935 14.6337 41.5829 15.782 43.031 15.7787C44.4461 15.7787 45.5618 14.6269 45.5618 13.1745L45.5585 10.5738C52.0091 11.1412 55.6029 14.9512 55.7445 22.213V23.3952L5.91732 23.4627L5.91401 22.4123C5.90416 15.0863 9.45525 11.2628 15.8729 10.6109L15.8762 13.2117C15.8762 14.6674 16.9655 15.8124 18.4136 15.8091C19.8617 15.8091 20.9445 14.6607 20.9445 13.2049L20.9412 10.4724ZM8.43174 36.2065C8.43174 35.4066 9.08015 34.7582 9.88001 34.7582H14.5697C15.3695 34.7582 16.0179 35.4066 16.0179 36.2065V40.8961C16.0179 41.696 15.3695 42.3444 14.5697 42.3444H9.88001C9.08015 42.3444 8.43174 41.696 8.43174 40.8961V36.2065ZM9.88001 47.1723C9.08015 47.1723 8.43174 47.8207 8.43174 48.6205V53.3102C8.43174 54.1101 9.08015 54.7585 9.88001 54.7585H14.5697C15.3695 54.7585 16.0179 54.1101 16.0179 53.3102V48.6205C16.0179 47.8207 15.3695 47.1723 14.5697 47.1723H9.88001ZM22.2251 36.2065C22.2251 35.4066 22.8735 34.7582 23.6734 34.7582H28.363C29.1629 34.7582 29.8113 35.4066 29.8113 36.2065V40.8961C29.8113 41.696 29.1629 42.3444 28.363 42.3444H23.6734C22.8735 42.3444 22.2251 41.696 22.2251 40.8961V36.2065ZM23.6734 47.1723C22.8735 47.1723 22.2251 47.8207 22.2251 48.6205V53.3102C22.2251 54.1101 22.8735 54.7585 23.6734 54.7585H28.363C29.1629 54.7585 29.8113 54.1101 29.8113 53.3102V48.6205C29.8113 47.8207 29.1629 47.1723 28.363 47.1723H23.6734Z" fill="#9EA3B5"/>
<path fill-rule="evenodd" clip-rule="evenodd" d="M50.1558 38.2066C42.7283 38.2066 36.7075 44.0731 36.7075 51.3101C36.7075 58.5471 42.7283 64.4135 50.1558 64.4135C57.5833 64.4135 63.6041 58.5471 63.6041 51.3101C63.6041 44.0731 57.5833 38.2066 50.1558 38.2066ZM51.9488 45.7924C51.9488 44.9926 51.3004 44.3441 50.5005 44.3441C49.7007 44.3441 49.0522 44.9926 49.0522 45.7924V52.5303C49.0522 53.102 49.3885 53.6202 49.9106 53.853L53.3589 55.391C54.0894 55.7168 54.9457 55.3887 55.2715 54.6582C55.5973 53.9277 55.2692 53.0714 54.5387 52.7456L51.9488 51.5905V45.7924Z" fill="#9EA3B5"/>
</svg>
