<svg width="163" height="28" viewBox="0 0 163 28" fill="none" xmlns="http://www.w3.org/2000/svg">
<path d="M0 27.195V0.375H5.58V11.967H16.02V0.375H21.6V27.195H16.02V16.827H5.58V27.195H0Z" fill="white"/>
<path d="M35.7272 27.627C33.7832 27.627 32.0072 27.183 30.3992 26.295C28.8152 25.407 27.5432 24.195 26.5832 22.659C25.6472 21.099 25.1792 19.335 25.1792 17.367C25.1792 15.375 25.6472 13.611 26.5832 12.075C27.5432 10.539 28.8152 9.327 30.3992 8.439C32.0072 7.551 33.7832 7.107 35.7272 7.107C37.6712 7.107 39.4352 7.551 41.0192 8.439C42.6032 9.327 43.8632 10.539 44.7992 12.075C45.7592 13.611 46.2392 15.375 46.2392 17.367C46.2392 19.335 45.7592 21.099 44.7992 22.659C43.8632 24.195 42.6032 25.407 41.0192 26.295C39.4352 27.183 37.6712 27.627 35.7272 27.627ZM35.7272 22.767C36.7112 22.767 37.5632 22.539 38.2832 22.083C39.0272 21.627 39.6032 20.991 40.0112 20.175C40.4432 19.359 40.6592 18.423 40.6592 17.367C40.6592 16.311 40.4432 15.387 40.0112 14.595C39.6032 13.779 39.0272 13.143 38.2832 12.687C37.5632 12.207 36.7112 11.967 35.7272 11.967C34.7432 11.967 33.8792 12.207 33.1352 12.687C32.3912 13.143 31.8032 13.779 31.3712 14.595C30.9632 15.387 30.7592 16.311 30.7592 17.367C30.7592 18.423 30.9632 19.359 31.3712 20.175C31.8032 20.991 32.3912 21.627 33.1352 22.083C33.8792 22.539 34.7432 22.767 35.7272 22.767Z" fill="white"/>
<path d="M49.4204 27.195V7.539H54.4604V12.327L53.9204 11.535C54.2084 10.023 54.9044 8.907 56.0084 8.187C57.1124 7.467 58.4324 7.107 59.9684 7.107C61.6004 7.107 63.0284 7.527 64.2524 8.367C65.5004 9.183 66.2804 10.287 66.5924 11.679L65.0444 11.823C65.6924 10.215 66.6164 9.027 67.8164 8.259C69.0164 7.491 70.4204 7.107 72.0284 7.107C73.4444 7.107 74.6924 7.419 75.7724 8.043C76.8764 8.667 77.7404 9.543 78.3644 10.671C78.9884 11.775 79.3004 13.071 79.3004 14.559V27.195H73.9004V15.711C73.9004 14.943 73.7564 14.283 73.4684 13.731C73.2044 13.179 72.8204 12.747 72.3164 12.435C71.8124 12.123 71.2004 11.967 70.4804 11.967C69.7844 11.967 69.1724 12.123 68.6444 12.435C68.1404 12.747 67.7444 13.179 67.4564 13.731C67.1924 14.283 67.0604 14.943 67.0604 15.711V27.195H61.6604V15.711C61.6604 14.943 61.5164 14.283 61.2284 13.731C60.9644 13.179 60.5804 12.747 60.0764 12.435C59.5724 12.123 58.9604 11.967 58.2404 11.967C57.5444 11.967 56.9324 12.123 56.4044 12.435C55.9004 12.747 55.5044 13.179 55.2164 13.731C54.9524 14.283 54.8204 14.943 54.8204 15.711V27.195H49.4204Z" fill="white"/>
<path d="M92.322 27.627C90.234 27.627 88.422 27.171 86.886 26.259C85.35 25.323 84.162 24.075 83.322 22.515C82.482 20.955 82.062 19.227 82.062 17.331C82.062 15.363 82.494 13.611 83.358 12.075C84.246 10.539 85.434 9.327 86.922 8.439C88.41 7.551 90.09 7.107 91.962 7.107C93.522 7.107 94.902 7.359 96.102 7.863C97.302 8.343 98.31 9.027 99.126 9.915C99.966 10.803 100.602 11.835 101.034 13.011C101.466 14.163 101.682 15.423 101.682 16.791C101.682 17.175 101.658 17.559 101.61 17.943C101.586 18.303 101.526 18.615 101.43 18.879H86.706V14.919H98.37L95.814 16.791C96.054 15.759 96.042 14.847 95.778 14.055C95.514 13.239 95.046 12.603 94.374 12.147C93.726 11.667 92.922 11.427 91.962 11.427C91.026 11.427 90.222 11.655 89.55 12.111C88.878 12.567 88.374 13.239 88.038 14.127C87.702 15.015 87.57 16.095 87.642 17.367C87.546 18.471 87.678 19.443 88.038 20.283C88.398 21.123 88.95 21.783 89.694 22.263C90.438 22.719 91.338 22.947 92.394 22.947C93.354 22.947 94.17 22.755 94.842 22.371C95.538 21.987 96.078 21.459 96.462 20.787L100.782 22.839C100.398 23.799 99.786 24.639 98.946 25.359C98.13 26.079 97.158 26.643 96.03 27.051C94.902 27.435 93.666 27.627 92.322 27.627Z" fill="white"/>
<path d="M105.258 27.195V0.375H115.554C117.402 0.375 119.034 0.698999 120.45 1.347C121.89 1.995 123.018 2.955 123.834 4.227C124.65 5.499 125.058 7.071 125.058 8.943C125.058 10.767 124.638 12.315 123.798 13.587C122.982 14.859 121.854 15.831 120.414 16.503C118.998 17.151 117.378 17.475 115.554 17.475H110.838V27.195H105.258ZM110.838 12.615H115.59C116.382 12.615 117.066 12.459 117.642 12.147C118.218 11.835 118.662 11.403 118.974 10.851C119.31 10.299 119.478 9.663 119.478 8.943C119.478 8.199 119.31 7.551 118.974 6.999C118.662 6.447 118.218 6.015 117.642 5.703C117.066 5.391 116.382 5.235 115.59 5.235H110.838V12.615Z" fill="white"/>
<path d="M128.241 27.195V7.539H133.281V12.255L132.921 11.571C133.353 9.915 134.061 8.799 135.045 8.223C136.053 7.623 137.241 7.323 138.609 7.323H139.761V12.003H138.069C136.749 12.003 135.681 12.411 134.865 13.227C134.049 14.019 133.641 15.147 133.641 16.611V27.195H128.241Z" fill="white"/>
<path d="M151.883 27.627C149.939 27.627 148.163 27.183 146.555 26.295C144.971 25.407 143.699 24.195 142.739 22.659C141.803 21.099 141.335 19.335 141.335 17.367C141.335 15.375 141.803 13.611 142.739 12.075C143.699 10.539 144.971 9.327 146.555 8.439C148.163 7.551 149.939 7.107 151.883 7.107C153.827 7.107 155.591 7.551 157.175 8.439C158.759 9.327 160.019 10.539 160.955 12.075C161.915 13.611 162.395 15.375 162.395 17.367C162.395 19.335 161.915 21.099 160.955 22.659C160.019 24.195 158.759 25.407 157.175 26.295C155.591 27.183 153.827 27.627 151.883 27.627ZM151.883 22.767C152.867 22.767 153.719 22.539 154.439 22.083C155.183 21.627 155.759 20.991 156.167 20.175C156.599 19.359 156.815 18.423 156.815 17.367C156.815 16.311 156.599 15.387 156.167 14.595C155.759 13.779 155.183 13.143 154.439 12.687C153.719 12.207 152.867 11.967 151.883 11.967C150.899 11.967 150.035 12.207 149.291 12.687C148.547 13.143 147.959 13.779 147.527 14.595C147.119 15.387 146.915 16.311 146.915 17.367C146.915 18.423 147.119 19.359 147.527 20.175C147.959 20.991 148.547 21.627 149.291 22.083C150.035 22.539 150.899 22.767 151.883 22.767Z" fill="white"/>
</svg>
