<svg aria-hidden="true" style="position: absolute; width: 0; height: 0; overflow: hidden;" version="1.1" xmlns="http://www.w3.org/2000/svg" xmlns:xlink="http://www.w3.org/1999/xlink">
    <defs>
        <symbol id="icon-logo" viewBox="0 0 149 32">
            <path fill="#15b2f5" style="fill: var(--color1, #15b2f5)" d="M14.080 7.75c1.142-0.84 2.698-0.84 3.84 0l6.888 5.065c0.831 0.611 1.321 1.58 1.321 2.611v10.332h-6.483v-8.692l-3.647-2.681-3.646 2.681v8.692h-6.483v-10.332c0-1.031 0.491-2.001 1.321-2.611l6.888-5.065z"></path>
            <path fill="#fff" style="fill: var(--color2, #fff)" d="M12.395 25.758h7.243v5.242h-7.243v-5.242z"></path>
            <path fill="#fff" style="fill: var(--color2, #fff)" d="M40 24.796v-17.88h3.72v7.728h6.96v-7.728h3.72v17.88h-3.72v-6.912h-6.96v6.912h-3.72z"></path>
            <path fill="#fff" style="fill: var(--color2, #fff)" d="M63.818 25.084c-1.296 0-2.48-0.296-3.552-0.888-1.056-0.592-1.904-1.4-2.544-2.424-0.624-1.040-0.936-2.216-0.936-3.528 0-1.328 0.312-2.504 0.936-3.528 0.64-1.024 1.488-1.832 2.544-2.424 1.072-0.592 2.256-0.888 3.552-0.888s2.472 0.296 3.528 0.888c1.056 0.592 1.896 1.4 2.52 2.424 0.64 1.024 0.96 2.2 0.96 3.528 0 1.312-0.32 2.488-0.96 3.528-0.624 1.024-1.464 1.832-2.52 2.424s-2.232 0.888-3.528 0.888zM63.818 21.844c0.656 0 1.224-0.152 1.704-0.456 0.496-0.304 0.88-0.728 1.152-1.272 0.288-0.544 0.432-1.168 0.432-1.872s-0.144-1.32-0.432-1.848c-0.272-0.544-0.656-0.968-1.152-1.272-0.48-0.32-1.048-0.48-1.704-0.48s-1.232 0.16-1.728 0.48c-0.496 0.304-0.888 0.728-1.176 1.272-0.272 0.528-0.408 1.144-0.408 1.848s0.136 1.328 0.408 1.872c0.288 0.544 0.68 0.968 1.176 1.272s1.072 0.456 1.728 0.456z"></path>
            <path fill="#fff" style="fill: var(--color2, #fff)" d="M72.947 24.796v-13.104h3.36v3.192l-0.36-0.528c0.192-1.008 0.656-1.752 1.392-2.232s1.616-0.72 2.64-0.72c1.088 0 2.040 0.28 2.856 0.84 0.832 0.544 1.352 1.28 1.56 2.208l-1.032 0.096c0.432-1.072 1.048-1.864 1.848-2.376s1.736-0.768 2.808-0.768c0.944 0 1.776 0.208 2.496 0.624 0.736 0.416 1.312 1 1.728 1.752 0.416 0.736 0.624 1.6 0.624 2.592v8.424h-3.6v-7.656c0-0.512-0.096-0.952-0.288-1.32-0.176-0.368-0.432-0.656-0.768-0.864s-0.744-0.312-1.224-0.312c-0.464 0-0.872 0.104-1.224 0.312-0.336 0.208-0.6 0.496-0.792 0.864-0.176 0.368-0.264 0.808-0.264 1.32v7.656h-3.6v-7.656c0-0.512-0.096-0.952-0.288-1.32-0.176-0.368-0.432-0.656-0.768-0.864s-0.744-0.312-1.224-0.312c-0.464 0-0.872 0.104-1.224 0.312-0.336 0.208-0.6 0.496-0.792 0.864-0.176 0.368-0.264 0.808-0.264 1.32v7.656h-3.6z"></path>
            <path fill="#fff" style="fill: var(--color2, #fff)" d="M101.548 25.084c-1.392 0-2.6-0.304-3.624-0.912-1.024-0.624-1.816-1.456-2.376-2.496s-0.84-2.192-0.84-3.456c0-1.312 0.288-2.48 0.864-3.504 0.592-1.024 1.384-1.832 2.376-2.424s2.112-0.888 3.36-0.888c1.040 0 1.96 0.168 2.76 0.504 0.8 0.32 1.472 0.776 2.016 1.368 0.56 0.592 0.984 1.28 1.272 2.064 0.288 0.768 0.432 1.608 0.432 2.52 0 0.256-0.016 0.512-0.048 0.768-0.016 0.24-0.056 0.448-0.12 0.624h-9.816v-2.64h7.776l-1.704 1.248c0.16-0.688 0.152-1.296-0.024-1.824-0.176-0.544-0.488-0.968-0.936-1.272-0.432-0.32-0.968-0.48-1.608-0.48-0.624 0-1.16 0.152-1.608 0.456s-0.784 0.752-1.008 1.344c-0.224 0.592-0.312 1.312-0.264 2.16-0.064 0.736 0.024 1.384 0.264 1.944s0.608 1 1.104 1.32c0.496 0.304 1.096 0.456 1.8 0.456 0.64 0 1.184-0.128 1.632-0.384 0.464-0.256 0.824-0.608 1.080-1.056l2.88 1.368c-0.256 0.64-0.664 1.2-1.224 1.68-0.544 0.48-1.192 0.856-1.944 1.128-0.752 0.256-1.576 0.384-2.472 0.384z"></path>
            <path fill="#fff" style="fill: var(--color2, #fff)" d="M110.172 24.796v-17.88h6.864c1.232 0 2.32 0.216 3.264 0.648 0.96 0.432 1.712 1.072 2.256 1.92s0.816 1.896 0.816 3.144c0 1.216-0.28 2.248-0.84 3.096-0.544 0.848-1.296 1.496-2.256 1.944-0.944 0.432-2.024 0.648-3.24 0.648h-3.144v6.48h-3.72zM113.892 15.076h3.168c0.528 0 0.984-0.104 1.368-0.312s0.68-0.496 0.888-0.864c0.224-0.368 0.336-0.792 0.336-1.272 0-0.496-0.112-0.928-0.336-1.296-0.208-0.368-0.504-0.656-0.888-0.864s-0.84-0.312-1.368-0.312h-3.168v4.92z"></path>
            <path fill="#fff" style="fill: var(--color2, #fff)" d="M125.494 24.796v-13.104h3.36v3.144l-0.24-0.456c0.288-1.104 0.76-1.848 1.416-2.232 0.672-0.4 1.464-0.6 2.376-0.6h0.768v3.12h-1.128c-0.88 0-1.592 0.272-2.136 0.816-0.544 0.528-0.816 1.28-0.816 2.256v7.056h-3.6z"></path>
            <path fill="#fff" style="fill: var(--color2, #fff)" d="M141.256 25.084c-1.296 0-2.48-0.296-3.552-0.888-1.056-0.592-1.904-1.4-2.544-2.424-0.624-1.040-0.936-2.216-0.936-3.528 0-1.328 0.312-2.504 0.936-3.528 0.64-1.024 1.488-1.832 2.544-2.424 1.072-0.592 2.256-0.888 3.552-0.888s2.472 0.296 3.528 0.888c1.056 0.592 1.896 1.4 2.52 2.424 0.64 1.024 0.96 2.2 0.96 3.528 0 1.312-0.32 2.488-0.96 3.528-0.624 1.024-1.464 1.832-2.52 2.424s-2.232 0.888-3.528 0.888zM141.256 21.844c0.656 0 1.224-0.152 1.704-0.456 0.496-0.304 0.88-0.728 1.152-1.272 0.288-0.544 0.432-1.168 0.432-1.872s-0.144-1.32-0.432-1.848c-0.272-0.544-0.656-0.968-1.152-1.272-0.48-0.32-1.048-0.48-1.704-0.48s-1.232 0.16-1.728 0.48c-0.496 0.304-0.888 0.728-1.176 1.272-0.272 0.528-0.408 1.144-0.408 1.848s0.136 1.328 0.408 1.872c0.288 0.544 0.68 0.968 1.176 1.272s1.072 0.456 1.728 0.456z"></path>
        </symbol>
        <symbol id="icon-hours" viewBox="0 0 32 32">
            <path d="M32 16c0 8.837-7.163 16-16 16s-16-7.163-16-16c0-8.837 7.163-16 16-16s16 7.163 16 16z"></path>
        </symbol>
        <symbol id="icon-hero-check" viewBox="0 0 32 32">
            <path stroke-linejoin="round" stroke-linecap="round" stroke-miterlimit="4" stroke-width="4" d="M26.667 8l-14.667 14.667-6.667-6.667"></path>
        </symbol>
        <symbol id="icon-phone" viewBox="0 0 32 32">
            <path d="M29.334 22.559v4c0.001 0.371-0.075 0.739-0.223 1.079s-0.367 0.646-0.641 0.897c-0.274 0.251-0.597 0.442-0.948 0.561s-0.725 0.163-1.094 0.13c-4.103-0.446-8.044-1.848-11.507-4.093-3.222-2.047-5.953-4.778-8-8-2.253-3.478-3.656-7.439-4.093-11.56-0.033-0.369 0.010-0.74 0.129-1.091s0.308-0.673 0.558-0.947c0.25-0.273 0.553-0.492 0.892-0.641s0.705-0.227 1.075-0.227h4c0.647-0.006 1.274 0.223 1.765 0.645s0.811 1.008 0.902 1.649c0.169 1.28 0.482 2.537 0.933 3.747 0.179 0.477 0.218 0.996 0.112 1.495s-0.353 0.956-0.712 1.319l-1.693 1.693c1.898 3.338 4.662 6.102 8 8l1.693-1.693c0.362-0.358 0.82-0.606 1.319-0.712s1.017-0.068 1.495 0.112c1.21 0.451 2.466 0.765 3.747 0.933 0.648 0.091 1.239 0.418 1.662 0.917s0.648 1.136 0.631 1.79z"></path>
        </symbol>
        <symbol id="icon-guarantee" viewBox="0 0 34 32">
            <path stroke-linejoin="round" stroke-linecap="round" stroke-miterlimit="4" stroke-width="3" d="M21.228 14l-5 4-3-1.882"></path>
            <path stroke-linejoin="miter" stroke-linecap="butt" stroke-miterlimit="4" stroke-width="3" d="M15.803 3.446c0.783-0.795 2.066-0.795 2.85 0l2.064 2.095c0.38 0.385 0.899 0.6 1.44 0.596l2.941-0.022c1.116-0.008 2.023 0.899 2.015 2.015l-0.022 2.941c-0.004 0.541 0.211 1.060 0.596 1.44l2.095 2.064c0.795 0.783 0.795 2.066 0 2.85l-2.095 2.064c-0.385 0.38-0.6 0.899-0.596 1.44l0.022 2.941c0.008 1.116-0.899 2.023-2.015 2.015l-2.941-0.022c-0.541-0.004-1.060 0.211-1.44 0.596l-2.064 2.095c-0.783 0.795-2.066 0.795-2.85 0l-2.064-2.095c-0.38-0.385-0.899-0.6-1.44-0.596l-2.941 0.022c-1.116 0.008-2.023-0.899-2.015-2.015l0.022-2.941c0.004-0.541-0.211-1.060-0.596-1.44l-2.095-2.064c-0.795-0.783-0.795-2.066 0-2.85l2.095-2.064c0.385-0.38 0.6-0.899 0.596-1.44l-0.022-2.941c-0.008-1.116 0.899-2.023 2.015-2.015l2.941 0.022c0.541 0.004 1.060-0.211 1.44-0.596l2.064-2.095z"></path>
        </symbol>
        <symbol id="icon-clock" viewBox="0 0 32 32">
            <path stroke-linejoin="round" stroke-linecap="round" stroke-miterlimit="4" stroke-width="3" d="M15.992 29.335c7.364 0 13.333-5.97 13.333-13.333s-5.969-13.333-13.333-13.333c-7.364 0-13.333 5.97-13.333 13.333s5.97 13.333 13.333 13.333z"></path>
            <path stroke-linejoin="round" stroke-linecap="round" stroke-miterlimit="4" stroke-width="3" d="M15.992 8v8l5.333 2.667"></path>
        </symbol>
        <symbol id="icon-location" viewBox="0 0 34 32">
            <path stroke-linejoin="round" stroke-linecap="round" stroke-miterlimit="4" stroke-width="3" d="M29.537 13.334c0 6.199-5.293 11.81-8.849 14.879-1.834 1.583-4.469 1.583-6.303 0-3.555-3.069-8.849-8.68-8.849-14.879 0-3.183 1.264-6.235 3.515-8.485s5.303-3.515 8.485-3.515c3.183 0 6.235 1.264 8.485 3.515s3.515 5.303 3.515 8.485z"></path>
            <path stroke-linejoin="round" stroke-linecap="round" stroke-miterlimit="4" stroke-width="3" d="M17.537 17.334c2.209 0 4-1.791 4-4s-1.791-4-4-4c-2.209 0-4 1.791-4 4s1.791 4 4 4z"></path>
        </symbol>
        <symbol id="icon-calendar" viewBox="0 0 34 32">
            <path stroke-linejoin="round" stroke-linecap="round" stroke-miterlimit="4" stroke-width="3" d="M26.333 5.334h-18.667c-1.473 0-2.667 1.194-2.667 2.667v18.667c0 1.473 1.194 2.667 2.667 2.667h18.667c1.473 0 2.667-1.194 2.667-2.667v-18.667c0-1.473-1.194-2.667-2.667-2.667z"></path>
            <path stroke-linejoin="round" stroke-linecap="round" stroke-miterlimit="4" stroke-width="3" d="M21.001 18.668l-4.167 5.333-2.5-2.51"></path>
            <path stroke-linejoin="round" stroke-linecap="round" stroke-miterlimit="4" stroke-width="3" d="M22.334 2.668v5.333"></path>
            <path stroke-linejoin="round" stroke-linecap="round" stroke-miterlimit="4" stroke-width="3" d="M11.666 2.668v5.333"></path>
            <path stroke-linejoin="round" stroke-linecap="round" stroke-miterlimit="4" stroke-width="3" d="M5 13.334h24"></path>
        </symbol>
        <symbol id="icon-horizontal-line" viewBox="0 0 4480 32">
            <path stroke-linejoin="miter" stroke-linecap="butt" stroke-miterlimit="4" stroke-width="16" d="M4480 16l-4480 0.004"></path>
        </symbol>
        <symbol id="icon-vertical-line" viewBox="0 0 0 32">
            <path stroke-linejoin="miter" stroke-linecap="butt" stroke-miterlimit="4" stroke-width="0.1475" d="M0.147 0v32"></path>
        </symbol>   
        <symbol id="icon-left-decoration" viewBox="0 0 82 32">
            <path d="M35.014 4.178c-4.506-2.694-10.272-4.178-16.239-4.178l-437.872 0v32h500.645l-46.534-27.823z"></path>
        </symbol>
        <symbol id="icon-right-decoration" viewBox="0 0 76 32">
            <path d="M46.534 4.178c4.506-2.694 10.272-4.178 16.239-4.178l437.872 0v32h-500.645l46.534-27.823z"></path>
        </symbol>
        <symbol id="icon-content-check" viewBox="0 0 32 32">
            <path stroke-linejoin="round" stroke-linecap="round" stroke-miterlimit="4" stroke-width="4" d="M26.667 8l-14.667 14.667-6.667-6.667"></path>
        </symbol>
    </defs>
</svg>
