<svg aria-hidden="true" style="position: absolute; width: 0; height: 0; overflow: hidden;" version="1.1" xmlns="http://www.w3.org/2000/svg" xmlns:xlink="http://www.w3.org/1999/xlink">
    <defs>
        <symbol id="icon-logo" viewBox="0 0 149 32">
            <path fill="#15b2f5" style="fill: var(--color1, #15b2f5)" d="M14.080 7.75c1.142-0.84 2.698-0.84 3.84 0l6.888 5.065c0.831 0.611 1.321 1.58 1.321 2.611v10.332h-6.483v-8.692l-3.647-2.681-3.646 2.681v8.692h-6.483v-10.332c0-1.031 0.491-2.001 1.321-2.611l6.888-5.065z"></path>
            <path fill="#fff" style="fill: var(--color2, #fff)" d="M12.395 25.758h7.243v5.242h-7.243v-5.242z"></path>
            <path fill="#fff" style="fill: var(--color2, #fff)" d="M40 24.796v-17.88h3.72v7.728h6.96v-7.728h3.72v17.88h-3.72v-6.912h-6.96v6.912h-3.72z"></path>
            <path fill="#fff" style="fill: var(--color2, #fff)" d="M63.818 25.084c-1.296 0-2.48-0.296-3.552-0.888-1.056-0.592-1.904-1.4-2.544-2.424-0.624-1.040-0.936-2.216-0.936-3.528 0-1.328 0.312-2.504 0.936-3.528 0.64-1.024 1.488-1.832 2.544-2.424 1.072-0.592 2.256-0.888 3.552-0.888s2.472 0.296 3.528 0.888c1.056 0.592 1.896 1.4 2.52 2.424 0.64 1.024 0.96 2.2 0.96 3.528 0 1.312-0.32 2.488-0.96 3.528-0.624 1.024-1.464 1.832-2.52 2.424s-2.232 0.888-3.528 0.888zM63.818 21.844c0.656 0 1.224-0.152 1.704-0.456 0.496-0.304 0.88-0.728 1.152-1.272 0.288-0.544 0.432-1.168 0.432-1.872s-0.144-1.32-0.432-1.848c-0.272-0.544-0.656-0.968-1.152-1.272-0.48-0.32-1.048-0.48-1.704-0.48s-1.232 0.16-1.728 0.48c-0.496 0.304-0.888 0.728-1.176 1.272-0.272 0.528-0.408 1.144-0.408 1.848s0.136 1.328 0.408 1.872c0.288 0.544 0.68 0.968 1.176 1.272s1.072 0.456 1.728 0.456z"></path>
            <path fill="#fff" style="fill: var(--color2, #fff)" d="M72.947 24.796v-13.104h3.36v3.192l-0.36-0.528c0.192-1.008 0.656-1.752 1.392-2.232s1.616-0.72 2.64-0.72c1.088 0 2.040 0.28 2.856 0.84 0.832 0.544 1.352 1.28 1.56 2.208l-1.032 0.096c0.432-1.072 1.048-1.864 1.848-2.376s1.736-0.768 2.808-0.768c0.944 0 1.776 0.208 2.496 0.624 0.736 0.416 1.312 1 1.728 1.752 0.416 0.736 0.624 1.6 0.624 2.592v8.424h-3.6v-7.656c0-0.512-0.096-0.952-0.288-1.32-0.176-0.368-0.432-0.656-0.768-0.864s-0.744-0.312-1.224-0.312c-0.464 0-0.872 0.104-1.224 0.312-0.336 0.208-0.6 0.496-0.792 0.864-0.176 0.368-0.264 0.808-0.264 1.32v7.656h-3.6v-7.656c0-0.512-0.096-0.952-0.288-1.32-0.176-0.368-0.432-0.656-0.768-0.864s-0.744-0.312-1.224-0.312c-0.464 0-0.872 0.104-1.224 0.312-0.336 0.208-0.6 0.496-0.792 0.864-0.176 0.368-0.264 0.808-0.264 1.32v7.656h-3.6z"></path>
            <path fill="#fff" style="fill: var(--color2, #fff)" d="M101.548 25.084c-1.392 0-2.6-0.304-3.624-0.912-1.024-0.624-1.816-1.456-2.376-2.496s-0.84-2.192-0.84-3.456c0-1.312 0.288-2.48 0.864-3.504 0.592-1.024 1.384-1.832 2.376-2.424s2.112-0.888 3.36-0.888c1.040 0 1.96 0.168 2.76 0.504 0.8 0.32 1.472 0.776 2.016 1.368 0.56 0.592 0.984 1.28 1.272 2.064 0.288 0.768 0.432 1.608 0.432 2.52 0 0.256-0.016 0.512-0.048 0.768-0.016 0.24-0.056 0.448-0.12 0.624h-9.816v-2.64h7.776l-1.704 1.248c0.16-0.688 0.152-1.296-0.024-1.824-0.176-0.544-0.488-0.968-0.936-1.272-0.432-0.32-0.968-0.48-1.608-0.48-0.624 0-1.16 0.152-1.608 0.456s-0.784 0.752-1.008 1.344c-0.224 0.592-0.312 1.312-0.264 2.16-0.064 0.736 0.024 1.384 0.264 1.944s0.608 1 1.104 1.32c0.496 0.304 1.096 0.456 1.8 0.456 0.64 0 1.184-0.128 1.632-0.384 0.464-0.256 0.824-0.608 1.080-1.056l2.88 1.368c-0.256 0.64-0.664 1.2-1.224 1.68-0.544 0.48-1.192 0.856-1.944 1.128-0.752 0.256-1.576 0.384-2.472 0.384z"></path>
            <path fill="#fff" style="fill: var(--color2, #fff)" d="M110.172 24.796v-17.88h6.864c1.232 0 2.32 0.216 3.264 0.648 0.96 0.432 1.712 1.072 2.256 1.92s0.816 1.896 0.816 3.144c0 1.216-0.28 2.248-0.84 3.096-0.544 0.848-1.296 1.496-2.256 1.944-0.944 0.432-2.024 0.648-3.24 0.648h-3.144v6.48h-3.72zM113.892 15.076h3.168c0.528 0 0.984-0.104 1.368-0.312s0.68-0.496 0.888-0.864c0.224-0.368 0.336-0.792 0.336-1.272 0-0.496-0.112-0.928-0.336-1.296-0.208-0.368-0.504-0.656-0.888-0.864s-0.84-0.312-1.368-0.312h-3.168v4.92z"></path>
            <path fill="#fff" style="fill: var(--color2, #fff)" d="M125.494 24.796v-13.104h3.36v3.144l-0.24-0.456c0.288-1.104 0.76-1.848 1.416-2.232 0.672-0.4 1.464-0.6 2.376-0.6h0.768v3.12h-1.128c-0.88 0-1.592 0.272-2.136 0.816-0.544 0.528-0.816 1.28-0.816 2.256v7.056h-3.6z"></path>
            <path fill="#fff" style="fill: var(--color2, #fff)" d="M141.256 25.084c-1.296 0-2.48-0.296-3.552-0.888-1.056-0.592-1.904-1.4-2.544-2.424-0.624-1.040-0.936-2.216-0.936-3.528 0-1.328 0.312-2.504 0.936-3.528 0.64-1.024 1.488-1.832 2.544-2.424 1.072-0.592 2.256-0.888 3.552-0.888s2.472 0.296 3.528 0.888c1.056 0.592 1.896 1.4 2.52 2.424 0.64 1.024 0.96 2.2 0.96 3.528 0 1.312-0.32 2.488-0.96 3.528-0.624 1.024-1.464 1.832-2.52 2.424s-2.232 0.888-3.528 0.888zM141.256 21.844c0.656 0 1.224-0.152 1.704-0.456 0.496-0.304 0.88-0.728 1.152-1.272 0.288-0.544 0.432-1.168 0.432-1.872s-0.144-1.32-0.432-1.848c-0.272-0.544-0.656-0.968-1.152-1.272-0.48-0.32-1.048-0.48-1.704-0.48s-1.232 0.16-1.728 0.48c-0.496 0.304-0.888 0.728-1.176 1.272-0.272 0.528-0.408 1.144-0.408 1.848s0.136 1.328 0.408 1.872c0.288 0.544 0.68 0.968 1.176 1.272s1.072 0.456 1.728 0.456z"></path>
        </symbol>
        <symbol id="icon-hours" viewBox="0 0 32 32">
            <path d="M32 16c0 8.837-7.163 16-16 16s-16-7.163-16-16c0-8.837 7.163-16 16-16s16 7.163 16 16z"></path>
        </symbol>
        <symbol id="icon-hero-check" viewBox="0 0 32 32">
            <path stroke-linejoin="round" stroke-linecap="round" stroke-miterlimit="4" stroke-width="4" d="M26.667 8l-14.667 14.667-6.667-6.667"></path>
        </symbol>
        <symbol id="icon-phone" viewBox="0 0 32 32">
            <path d="M29.334 22.559v4c0.001 0.371-0.075 0.739-0.223 1.079s-0.367 0.646-0.641 0.897c-0.274 0.251-0.597 0.442-0.948 0.561s-0.725 0.163-1.094 0.13c-4.103-0.446-8.044-1.848-11.507-4.093-3.222-2.047-5.953-4.778-8-8-2.253-3.478-3.656-7.439-4.093-11.56-0.033-0.369 0.010-0.74 0.129-1.091s0.308-0.673 0.558-0.947c0.25-0.273 0.553-0.492 0.892-0.641s0.705-0.227 1.075-0.227h4c0.647-0.006 1.274 0.223 1.765 0.645s0.811 1.008 0.902 1.649c0.169 1.28 0.482 2.537 0.933 3.747 0.179 0.477 0.218 0.996 0.112 1.495s-0.353 0.956-0.712 1.319l-1.693 1.693c1.898 3.338 4.662 6.102 8 8l1.693-1.693c0.362-0.358 0.82-0.606 1.319-0.712s1.017-0.068 1.495 0.112c1.21 0.451 2.466 0.765 3.747 0.933 0.648 0.091 1.239 0.418 1.662 0.917s0.648 1.136 0.631 1.79z"></path>
        </symbol>
        <symbol id="icon-guarantee" viewBox="0 0 34 32">
            <path stroke-linejoin="round" stroke-linecap="round" stroke-miterlimit="4" stroke-width="3" d="M21.228 14l-5 4-3-1.882"></path>
            <path stroke-linejoin="miter" stroke-linecap="butt" stroke-miterlimit="4" stroke-width="3" d="M15.803 3.446c0.783-0.795 2.066-0.795 2.85 0l2.064 2.095c0.38 0.385 0.899 0.6 1.44 0.596l2.941-0.022c1.116-0.008 2.023 0.899 2.015 2.015l-0.022 2.941c-0.004 0.541 0.211 1.060 0.596 1.44l2.095 2.064c0.795 0.783 0.795 2.066 0 2.85l-2.095 2.064c-0.385 0.38-0.6 0.899-0.596 1.44l0.022 2.941c0.008 1.116-0.899 2.023-2.015 2.015l-2.941-0.022c-0.541-0.004-1.060 0.211-1.44 0.596l-2.064 2.095c-0.783 0.795-2.066 0.795-2.85 0l-2.064-2.095c-0.38-0.385-0.899-0.6-1.44-0.596l-2.941 0.022c-1.116 0.008-2.023-0.899-2.015-2.015l0.022-2.941c0.004-0.541-0.211-1.060-0.596-1.44l-2.095-2.064c-0.795-0.783-0.795-2.066 0-2.85l2.095-2.064c0.385-0.38 0.6-0.899 0.596-1.44l-0.022-2.941c-0.008-1.116 0.899-2.023 2.015-2.015l2.941 0.022c0.541 0.004 1.060-0.211 1.44-0.596l2.064-2.095z"></path>
        </symbol>
        <symbol id="icon-clock" viewBox="0 0 32 32">
            <path stroke-linejoin="round" stroke-linecap="round" stroke-miterlimit="4" stroke-width="3" d="M15.992 29.335c7.364 0 13.333-5.97 13.333-13.333s-5.969-13.333-13.333-13.333c-7.364 0-13.333 5.97-13.333 13.333s5.97 13.333 13.333 13.333z"></path>
            <path stroke-linejoin="round" stroke-linecap="round" stroke-miterlimit="4" stroke-width="3" d="M15.992 8v8l5.333 2.667"></path>
        </symbol>
        <symbol id="icon-location" viewBox="0 0 34 32">
            <path stroke-linejoin="round" stroke-linecap="round" stroke-miterlimit="4" stroke-width="3" d="M29.537 13.334c0 6.199-5.293 11.81-8.849 14.879-1.834 1.583-4.469 1.583-6.303 0-3.555-3.069-8.849-8.68-8.849-14.879 0-3.183 1.264-6.235 3.515-8.485s5.303-3.515 8.485-3.515c3.183 0 6.235 1.264 8.485 3.515s3.515 5.303 3.515 8.485z"></path>
            <path stroke-linejoin="round" stroke-linecap="round" stroke-miterlimit="4" stroke-width="3" d="M17.537 17.334c2.209 0 4-1.791 4-4s-1.791-4-4-4c-2.209 0-4 1.791-4 4s1.791 4 4 4z"></path>
        </symbol>
        <symbol id="icon-calendar" viewBox="0 0 34 32">
            <path stroke-linejoin="round" stroke-linecap="round" stroke-miterlimit="4" stroke-width="3" d="M26.333 5.334h-18.667c-1.473 0-2.667 1.194-2.667 2.667v18.667c0 1.473 1.194 2.667 2.667 2.667h18.667c1.473 0 2.667-1.194 2.667-2.667v-18.667c0-1.473-1.194-2.667-2.667-2.667z"></path>
            <path stroke-linejoin="round" stroke-linecap="round" stroke-miterlimit="4" stroke-width="3" d="M21.001 18.668l-4.167 5.333-2.5-2.51"></path>
            <path stroke-linejoin="round" stroke-linecap="round" stroke-miterlimit="4" stroke-width="3" d="M22.334 2.668v5.333"></path>
            <path stroke-linejoin="round" stroke-linecap="round" stroke-miterlimit="4" stroke-width="3" d="M11.666 2.668v5.333"></path>
            <path stroke-linejoin="round" stroke-linecap="round" stroke-miterlimit="4" stroke-width="3" d="M5 13.334h24"></path>
        </symbol>
        <symbol id="icon-horizontal-line" viewBox="0 0 4480 32">
            <path stroke-linejoin="miter" stroke-linecap="butt" stroke-miterlimit="4" stroke-width="16" d="M4480 16l-4480 0.004"></path>
        </symbol>
        <symbol id="icon-vertical-line" viewBox="0 0 0 32">
            <path stroke-linejoin="miter" stroke-linecap="butt" stroke-miterlimit="4" stroke-width="0.1475" d="M0.147 0v32"></path>
        </symbol>   
        <symbol id="icon-left-decoration" viewBox="0 0 82 32">
            <path d="M35.014 4.178c-4.506-2.694-10.272-4.178-16.239-4.178l-437.872 0v32h500.645l-46.534-27.823z"></path>
        </symbol>
        <symbol id="icon-right-decoration" viewBox="0 0 76 32">
            <path d="M46.534 4.178c4.506-2.694 10.272-4.178 16.239-4.178l437.872 0v32h-500.645l46.534-27.823z"></path>
        </symbol>
        <symbol id="icon-content-check" viewBox="0 0 32 32">
            <path stroke-linejoin="round" stroke-linecap="round" stroke-miterlimit="4" stroke-width="4" d="M26.667 8l-14.667 14.667-6.667-6.667"></path>
        </symbol>
        <symbol id="icon-plumbing" viewBox="0 0 33 32">
            <path d="M27.083 5.889l-3.183-3.048c-1.171-1.121-3.078-1.121-4.25 0l-4.25 4.069 3.183 3.048 3.183-3.048 5.316 5.090c0.844-0.812 1.318-1.91 1.318-3.055s-0.474-2.244-1.318-3.055z"></path>
            <path d="M7.016 18.386c0.821 0.819 2.142 0.819 2.949 0l3.436-3.429-2.949-2.957-3.436 3.429c-0.821 0.819-0.821 2.138 0 2.957z"></path>
            <path d="M20.833 10.134l4.139 4.011c0.136 0.131 0.244 0.287 0.317 0.458s0.111 0.355 0.111 0.541-0.038 0.369-0.111 0.541c-0.074 0.171-0.181 0.327-0.317 0.458s-0.297 0.235-0.475 0.306c-0.178 0.071-0.368 0.108-0.56 0.108s-0.382-0.037-0.56-0.108c-0.178-0.071-0.339-0.175-0.475-0.306l-13.489 13.026c-1.145 1.106-3.009 1.106-4.154 0s-1.145-2.906 0-4.011l10.377-10.021-4.668-4.508c-0.206-0.196-0.369-0.43-0.481-0.688s-0.169-0.535-0.169-0.814c0-0.28 0.057-0.556 0.169-0.814s0.275-0.492 0.481-0.688c0.851-0.836 2.246-0.836 3.112 0.014l4.668 4.507 2.084-2.013z"></path>
        </symbol>
        <symbol id="icon-roof" viewBox="0 0 33 32">
            <path d="M11.529 11.925h-5.040l-0.28 0.539h5.011l-2.19 3.826h-4.808l-0.28 0.539h4.78l-2.017 3.524h-4.616l1.241-2.386v-1.137h0.015v-0.539h-0.015v-3.826h0.015v-0.539h-0.015v-0.286h0.015v-1.064h3.829l1.413-2.716h5.269l-2.328 4.066z"></path>
            <path d="M14.477 7.859l-2.328 4.066h4.376l2.328-4.066h-4.376z"></path>
            <path d="M19.474 7.859l-2.328 4.066h4.711l1.041-2.031 7.071 14.247h2.713l-8.47-16.282h-4.739z"></path>
            <path d="M21.581 12.464h-4.744l-2.19 3.826h4.973l1.961-3.826z"></path>
            <path d="M19.345 16.828h-5.005l-2.017 3.524h5.217l1.806-3.524z"></path>
            <path d="M17.263 20.89h-5.249l-1.861 3.251h5.444l1.666-3.251z"></path>
            <path d="M9.532 24.141l1.861-3.251h-4.376l-1.861 3.251h4.376z"></path>
            <path d="M4.536 24.141l1.861-3.251h-4.588l-1.691 3.251h4.418z"></path>
            <path d="M11.841 12.464h4.376l-2.19 3.826h-4.376l2.19-3.826z"></path>
            <path d="M9.343 16.828l-2.017 3.524h4.376l2.017-3.524h-4.376z"></path>
            <path d="M20.31 17.978h2.374v2.374h-2.374v-2.374z"></path>
            <path d="M20.31 20.946h2.374v2.374h-2.374v-2.374z"></path>
            <path d="M25.652 17.978h-2.374v2.374h2.374v-2.374z"></path>
            <path d="M23.277 20.946h2.374v2.374h-2.374v-2.374z"></path>
        </symbol>
        <symbol id="icon-Wall" viewBox="0 0 33 32">
            <path d="M4.4 7.2c0-0.442 0.358-0.8 0.8-0.8h9.665c0.442 0 0.8 0.358 0.8 0.8v3.805c0 0.442-0.358 0.8-0.8 0.8h-9.665c-0.442 0-0.8-0.358-0.8-0.8v-3.805z"></path>
            <path d="M4.4 14.497c0-0.442 0.358-0.8 0.8-0.8h4.767c0.442 0 0.8 0.358 0.8 0.8v3.805c0 0.442-0.358 0.8-0.8 0.8h-4.767c-0.442 0-0.8-0.358-0.8-0.8v-3.805z"></path>
            <path d="M12.237 14.497c0-0.442 0.358-0.8 0.8-0.8h9.665c0.442 0 0.8 0.358 0.8 0.8v3.805c0 0.442-0.358 0.8-0.8 0.8h-9.665c-0.442 0-0.8-0.358-0.8-0.8v-3.805z"></path>
            <path d="M4.4 21.795c0-0.442 0.358-0.8 0.8-0.8h9.665c0.442 0 0.8 0.358 0.8 0.8v3.805c0 0.442-0.358 0.8-0.8 0.8h-9.665c-0.442 0-0.8-0.358-0.8-0.8v-3.805z"></path>
            <path d="M17.135 21.795c0-0.442 0.358-0.8 0.8-0.8h9.665c0.442 0 0.8 0.358 0.8 0.8v3.805c0 0.442-0.358 0.8-0.8 0.8h-9.665c-0.442 0-0.8-0.358-0.8-0.8v-3.805z"></path>
        </symbol>
        <symbol id="icon-tree" viewBox="0 0 33 32">
                <path d="M28.177 2.367h-2.82c-0.178 0-0.341 0.101-0.42 0.26l-2.4 4.8-2.4-4.8c-0.080-0.159-0.242-0.26-0.421-0.26h-10.342c-0.26 0-0.47 0.21-0.47 0.47v12.306l-4.448-2.831c-0.185-0.118-0.429-0.092-0.585 0.064l-2.35 2.35c-0.176 0.176-0.185 0.459-0.019 0.645l7.402 8.328v5.462c0 0.26 0.21 0.47 0.47 0.47h5.171v-7.521c0-0.26 0.21-0.47 0.47-0.47s0.47 0.21 0.47 0.47v7.521h12.692c0.26 0 0.47-0.21 0.47-0.47v-26.325c0-0.26-0.21-0.47-0.47-0.47zM15.485 19.29c0 0.26-0.21 0.47-0.47 0.47s-0.47-0.21-0.47-0.47v-0.94c0-0.26 0.21-0.47 0.47-0.47s0.47 0.21 0.47 0.47v0.94z"></path>
        </symbol>
        <symbol id="icon-repair" viewBox="0 0 33 32">
            <path d="M23.344 6.364c-0.446 0.463-0.689 1.085-0.675 1.727 0.027 1.338 1.136 2.4 2.475 2.373 0.643-0.013 1.255-0.281 1.701-0.744l3.224-3.354c0.638 1.266 0.866 2.698 0.655 4.099s-0.852 2.702-1.835 3.725c-0.983 1.022-2.259 1.715-3.652 1.983s-2.836 0.098-4.128-0.486c-1.707-1.27-2.464-2.006-3.5-3.355-0.638-1.266-0.866-2.698-0.655-4.099s0.853-2.702 1.835-3.724c0.983-1.022 2.259-1.715 3.652-1.983s2.836-0.098 4.128 0.486l-3.224 3.354z"></path>
            <path d="M11.293 19.029l3.518 3.336-5.223 5.541c-0.446 0.463-1.057 0.731-1.701 0.744s-1.265-0.229-1.73-0.674c-0.464-0.445-0.732-1.056-0.745-1.698s0.23-1.264 0.675-1.727l5.205-5.522z"></path>
            <path d="M15.732 13.042l11.434 10.841c1.13 1.072 1.19 2.851 0.135 3.996-1.079 1.171-2.91 1.233-4.065 0.137l-11.434-10.841c-0.931-0.883-1.136-2.246-0.589-3.339l-5.308-5.117-0.984 0.984-2.921-3.935 1.807-1.995 4.224 2.822-0.976 0.976 5.269 5.079c1.068-0.626 2.464-0.504 3.409 0.392z"></path>
        </symbol>
        <symbol id="icon-bathroom" viewBox="0 0 33 32">
            <path d="M30.4 17h-28c-0.265 0-0.52 0.105-0.707 0.293s-0.293 0.442-0.293 0.707v5c0.002 1.591 0.634 3.116 1.759 4.241s2.65 1.758 4.241 1.759h1v2c0 0.265 0.105 0.52 0.293 0.707s0.442 0.293 0.707 0.293c0.265 0 0.52-0.105 0.707-0.293s0.293-0.442 0.293-0.707v-2h12v2c0 0.265 0.105 0.52 0.293 0.707s0.442 0.293 0.707 0.293c0.265 0 0.52-0.105 0.707-0.293s0.293-0.442 0.293-0.707v-2h1c1.591-0.002 3.116-0.634 4.241-1.759s1.758-2.65 1.759-4.241v-5c0-0.265-0.105-0.52-0.293-0.707s-0.442-0.293-0.707-0.293z"></path>
            <path d="M16.4 6.1v-1.1c0-0.796 0.316-1.559 0.879-2.121s1.326-0.879 2.121-0.879 1.559 0.316 2.121 0.879c0.563 0.563 0.879 1.326 0.879 2.121v10h2v-10c0-1.326-0.527-2.598-1.464-3.536s-2.209-1.464-3.536-1.464c-1.326 0-2.598 0.527-3.536 1.464s-1.464 2.209-1.464 3.536v1.1c-1.129 0.232-2.143 0.846-2.871 1.739s-1.127 2.009-1.129 3.161c0 0.265 0.105 0.52 0.293 0.707s0.442 0.293 0.707 0.293h8c0.265 0 0.52-0.105 0.707-0.293s0.293-0.442 0.293-0.707c-0.001-1.152-0.4-2.269-1.129-3.161s-1.743-1.507-2.871-1.739z"></path>
        </symbol>
        <symbol id="icon-door" viewBox="0 0 33 32">
            <path d="M29.436 7.983h-13.456c-0.456-0.447-1.035-0.75-1.662-0.87s-1.277-0.052-1.866 0.196c-0.589 0.248-1.092 0.664-1.446 1.196s-0.542 1.157-0.542 1.796c0 0.639 0.189 1.264 0.542 1.796s0.857 0.948 1.446 1.196c0.589 0.248 1.238 0.316 1.866 0.196s1.206-0.422 1.662-0.87h13.456c0.123 0 0.241-0.049 0.328-0.136s0.136-0.205 0.136-0.328v-3.709c0-0.123-0.049-0.241-0.136-0.328s-0.205-0.136-0.328-0.136z"></path>
            <path d="M17.728 0.584h-9.146c-0.606 0-1.188 0.241-1.617 0.67s-0.67 1.010-0.67 1.617l-0.437 26.261c0 0.606 0.241 1.188 0.67 1.617s1.010 0.67 1.617 0.67h9.146c0.606 0 1.188-0.241 1.617-0.67s0.67-1.010 0.67-1.617l0.437-14.829h-3.056c-1.054 0.852-2.402 1.253-3.751 1.116s-2.589-0.8-3.451-1.846c-0.566-0.686-0.944-1.506-1.098-2.381s-0.079-1.776 0.218-2.613c0.297-0.838 0.806-1.584 1.478-2.166s1.482-0.981 2.353-1.156c0.336-0.066 0.677-0.099 1.020-0.099 1.176-0.003 2.318 0.401 3.231 1.143h3.057v-3.43c0-0.606-0.241-1.188-0.67-1.617s-1.010-0.67-1.617-0.67zM12.718 19.413c0.502-0.002 0.992 0.162 1.391 0.466s0.687 0.733 0.817 1.218c0.13 0.485 0.097 1-0.096 1.464s-0.534 0.851-0.97 1.101v2.609c0 0.152-0.060 0.297-0.167 0.404s-0.253 0.167-0.404 0.167h-1.143c-0.152 0-0.297-0.060-0.404-0.167s-0.167-0.253-0.167-0.404v-2.609c-0.436-0.25-0.777-0.637-0.969-1.101s-0.226-0.979-0.096-1.464c0.131-0.485 0.418-0.914 0.818-1.218s0.889-0.469 1.391-0.466z"></path>
        </symbol>
    </defs>
</svg>
