<svg aria-hidden="true" style="position: absolute; width: 0; height: 0; overflow: hidden;" version="1.1" xmlns="http://www.w3.org/2000/svg" xmlns:xlink="http://www.w3.org/1999/xlink">
    <defs>
        <symbol id="icon-logo" viewBox="0 0 149 32">
            <path fill="#15b2f5" style="fill: var(--color1, #15b2f5)" d="M14.080 7.75c1.142-0.84 2.698-0.84 3.84 0l6.888 5.065c0.831 0.611 1.321 1.58 1.321 2.611v10.332h-6.483v-8.692l-3.647-2.681-3.646 2.681v8.692h-6.483v-10.332c0-1.031 0.491-2.001 1.321-2.611l6.888-5.065z"></path>
            <path fill="#fff" style="fill: var(--color2, #fff)" d="M12.395 25.758h7.243v5.242h-7.243v-5.242z"></path>
            <path fill="#fff" style="fill: var(--color2, #fff)" d="M40 24.796v-17.88h3.72v7.728h6.96v-7.728h3.72v17.88h-3.72v-6.912h-6.96v6.912h-3.72z"></path>
            <path fill="#fff" style="fill: var(--color2, #fff)" d="M63.818 25.084c-1.296 0-2.48-0.296-3.552-0.888-1.056-0.592-1.904-1.4-2.544-2.424-0.624-1.040-0.936-2.216-0.936-3.528 0-1.328 0.312-2.504 0.936-3.528 0.64-1.024 1.488-1.832 2.544-2.424 1.072-0.592 2.256-0.888 3.552-0.888s2.472 0.296 3.528 0.888c1.056 0.592 1.896 1.4 2.52 2.424 0.64 1.024 0.96 2.2 0.96 3.528 0 1.312-0.32 2.488-0.96 3.528-0.624 1.024-1.464 1.832-2.52 2.424s-2.232 0.888-3.528 0.888zM63.818 21.844c0.656 0 1.224-0.152 1.704-0.456 0.496-0.304 0.88-0.728 1.152-1.272 0.288-0.544 0.432-1.168 0.432-1.872s-0.144-1.32-0.432-1.848c-0.272-0.544-0.656-0.968-1.152-1.272-0.48-0.32-1.048-0.48-1.704-0.48s-1.232 0.16-1.728 0.48c-0.496 0.304-0.888 0.728-1.176 1.272-0.272 0.528-0.408 1.144-0.408 1.848s0.136 1.328 0.408 1.872c0.288 0.544 0.68 0.968 1.176 1.272s1.072 0.456 1.728 0.456z"></path>
            <path fill="#fff" style="fill: var(--color2, #fff)" d="M72.947 24.796v-13.104h3.36v3.192l-0.36-0.528c0.192-1.008 0.656-1.752 1.392-2.232s1.616-0.72 2.64-0.72c1.088 0 2.040 0.28 2.856 0.84 0.832 0.544 1.352 1.28 1.56 2.208l-1.032 0.096c0.432-1.072 1.048-1.864 1.848-2.376s1.736-0.768 2.808-0.768c0.944 0 1.776 0.208 2.496 0.624 0.736 0.416 1.312 1 1.728 1.752 0.416 0.736 0.624 1.6 0.624 2.592v8.424h-3.6v-7.656c0-0.512-0.096-0.952-0.288-1.32-0.176-0.368-0.432-0.656-0.768-0.864s-0.744-0.312-1.224-0.312c-0.464 0-0.872 0.104-1.224 0.312-0.336 0.208-0.6 0.496-0.792 0.864-0.176 0.368-0.264 0.808-0.264 1.32v7.656h-3.6v-7.656c0-0.512-0.096-0.952-0.288-1.32-0.176-0.368-0.432-0.656-0.768-0.864s-0.744-0.312-1.224-0.312c-0.464 0-0.872 0.104-1.224 0.312-0.336 0.208-0.6 0.496-0.792 0.864-0.176 0.368-0.264 0.808-0.264 1.32v7.656h-3.6z"></path>
            <path fill="#fff" style="fill: var(--color2, #fff)" d="M101.548 25.084c-1.392 0-2.6-0.304-3.624-0.912-1.024-0.624-1.816-1.456-2.376-2.496s-0.84-2.192-0.84-3.456c0-1.312 0.288-2.48 0.864-3.504 0.592-1.024 1.384-1.832 2.376-2.424s2.112-0.888 3.36-0.888c1.040 0 1.96 0.168 2.76 0.504 0.8 0.32 1.472 0.776 2.016 1.368 0.56 0.592 0.984 1.28 1.272 2.064 0.288 0.768 0.432 1.608 0.432 2.52 0 0.256-0.016 0.512-0.048 0.768-0.016 0.24-0.056 0.448-0.12 0.624h-9.816v-2.64h7.776l-1.704 1.248c0.16-0.688 0.152-1.296-0.024-1.824-0.176-0.544-0.488-0.968-0.936-1.272-0.432-0.32-0.968-0.48-1.608-0.48-0.624 0-1.16 0.152-1.608 0.456s-0.784 0.752-1.008 1.344c-0.224 0.592-0.312 1.312-0.264 2.16-0.064 0.736 0.024 1.384 0.264 1.944s0.608 1 1.104 1.32c0.496 0.304 1.096 0.456 1.8 0.456 0.64 0 1.184-0.128 1.632-0.384 0.464-0.256 0.824-0.608 1.080-1.056l2.88 1.368c-0.256 0.64-0.664 1.2-1.224 1.68-0.544 0.48-1.192 0.856-1.944 1.128-0.752 0.256-1.576 0.384-2.472 0.384z"></path>
            <path fill="#fff" style="fill: var(--color2, #fff)" d="M110.172 24.796v-17.88h6.864c1.232 0 2.32 0.216 3.264 0.648 0.96 0.432 1.712 1.072 2.256 1.92s0.816 1.896 0.816 3.144c0 1.216-0.28 2.248-0.84 3.096-0.544 0.848-1.296 1.496-2.256 1.944-0.944 0.432-2.024 0.648-3.24 0.648h-3.144v6.48h-3.72zM113.892 15.076h3.168c0.528 0 0.984-0.104 1.368-0.312s0.68-0.496 0.888-0.864c0.224-0.368 0.336-0.792 0.336-1.272 0-0.496-0.112-0.928-0.336-1.296-0.208-0.368-0.504-0.656-0.888-0.864s-0.84-0.312-1.368-0.312h-3.168v4.92z"></path>
            <path fill="#fff" style="fill: var(--color2, #fff)" d="M125.494 24.796v-13.104h3.36v3.144l-0.24-0.456c0.288-1.104 0.76-1.848 1.416-2.232 0.672-0.4 1.464-0.6 2.376-0.6h0.768v3.12h-1.128c-0.88 0-1.592 0.272-2.136 0.816-0.544 0.528-0.816 1.28-0.816 2.256v7.056h-3.6z"></path>
            <path fill="#fff" style="fill: var(--color2, #fff)" d="M141.256 25.084c-1.296 0-2.48-0.296-3.552-0.888-1.056-0.592-1.904-1.4-2.544-2.424-0.624-1.040-0.936-2.216-0.936-3.528 0-1.328 0.312-2.504 0.936-3.528 0.64-1.024 1.488-1.832 2.544-2.424 1.072-0.592 2.256-0.888 3.552-0.888s2.472 0.296 3.528 0.888c1.056 0.592 1.896 1.4 2.52 2.424 0.64 1.024 0.96 2.2 0.96 3.528 0 1.312-0.32 2.488-0.96 3.528-0.624 1.024-1.464 1.832-2.52 2.424s-2.232 0.888-3.528 0.888zM141.256 21.844c0.656 0 1.224-0.152 1.704-0.456 0.496-0.304 0.88-0.728 1.152-1.272 0.288-0.544 0.432-1.168 0.432-1.872s-0.144-1.32-0.432-1.848c-0.272-0.544-0.656-0.968-1.152-1.272-0.48-0.32-1.048-0.48-1.704-0.48s-1.232 0.16-1.728 0.48c-0.496 0.304-0.888 0.728-1.176 1.272-0.272 0.528-0.408 1.144-0.408 1.848s0.136 1.328 0.408 1.872c0.288 0.544 0.68 0.968 1.176 1.272s1.072 0.456 1.728 0.456z"></path>
        </symbol>
        <symbol id="icon-hours" viewBox="0 0 32 32">
            <path d="M32 16c0 8.837-7.163 16-16 16s-16-7.163-16-16c0-8.837 7.163-16 16-16s16 7.163 16 16z"></path>
        </symbol>
        <symbol id="icon-hero-check" viewBox="0 0 32 32">
            <path stroke-linejoin="round" stroke-linecap="round" stroke-miterlimit="4" stroke-width="4" d="M26.667 8l-14.667 14.667-6.667-6.667"></path>
        </symbol>
        <symbol id="icon-phone" viewBox="0 0 32 32">
            <path d="M29.334 22.559v4c0.001 0.371-0.075 0.739-0.223 1.079s-0.367 0.646-0.641 0.897c-0.274 0.251-0.597 0.442-0.948 0.561s-0.725 0.163-1.094 0.13c-4.103-0.446-8.044-1.848-11.507-4.093-3.222-2.047-5.953-4.778-8-8-2.253-3.478-3.656-7.439-4.093-11.56-0.033-0.369 0.010-0.74 0.129-1.091s0.308-0.673 0.558-0.947c0.25-0.273 0.553-0.492 0.892-0.641s0.705-0.227 1.075-0.227h4c0.647-0.006 1.274 0.223 1.765 0.645s0.811 1.008 0.902 1.649c0.169 1.28 0.482 2.537 0.933 3.747 0.179 0.477 0.218 0.996 0.112 1.495s-0.353 0.956-0.712 1.319l-1.693 1.693c1.898 3.338 4.662 6.102 8 8l1.693-1.693c0.362-0.358 0.82-0.606 1.319-0.712s1.017-0.068 1.495 0.112c1.21 0.451 2.466 0.765 3.747 0.933 0.648 0.091 1.239 0.418 1.662 0.917s0.648 1.136 0.631 1.79z"></path>
        </symbol>
        <symbol id="icon-guarantee" viewBox="0 0 34 32">
            <path stroke-linejoin="round" stroke-linecap="round" stroke-miterlimit="4" stroke-width="3" d="M21.228 14l-5 4-3-1.882"></path>
            <path stroke-linejoin="miter" stroke-linecap="butt" stroke-miterlimit="4" stroke-width="3" d="M15.803 3.446c0.783-0.795 2.066-0.795 2.85 0l2.064 2.095c0.38 0.385 0.899 0.6 1.44 0.596l2.941-0.022c1.116-0.008 2.023 0.899 2.015 2.015l-0.022 2.941c-0.004 0.541 0.211 1.060 0.596 1.44l2.095 2.064c0.795 0.783 0.795 2.066 0 2.85l-2.095 2.064c-0.385 0.38-0.6 0.899-0.596 1.44l0.022 2.941c0.008 1.116-0.899 2.023-2.015 2.015l-2.941-0.022c-0.541-0.004-1.060 0.211-1.44 0.596l-2.064 2.095c-0.783 0.795-2.066 0.795-2.85 0l-2.064-2.095c-0.38-0.385-0.899-0.6-1.44-0.596l-2.941 0.022c-1.116 0.008-2.023-0.899-2.015-2.015l0.022-2.941c0.004-0.541-0.211-1.060-0.596-1.44l-2.095-2.064c-0.795-0.783-0.795-2.066 0-2.85l2.095-2.064c0.385-0.38 0.6-0.899 0.596-1.44l-0.022-2.941c-0.008-1.116 0.899-2.023 2.015-2.015l2.941 0.022c0.541 0.004 1.060-0.211 1.44-0.596l2.064-2.095z"></path>
        </symbol>
        <symbol id="icon-clock" viewBox="0 0 32 32">
            <path stroke-linejoin="round" stroke-linecap="round" stroke-miterlimit="4" stroke-width="3" d="M15.992 29.335c7.364 0 13.333-5.97 13.333-13.333s-5.969-13.333-13.333-13.333c-7.364 0-13.333 5.97-13.333 13.333s5.97 13.333 13.333 13.333z"></path>
            <path stroke-linejoin="round" stroke-linecap="round" stroke-miterlimit="4" stroke-width="3" d="M15.992 8v8l5.333 2.667"></path>
        </symbol>
        <symbol id="icon-location" viewBox="0 0 34 32">
            <path stroke-linejoin="round" stroke-linecap="round" stroke-miterlimit="4" stroke-width="3" d="M29.537 13.334c0 6.199-5.293 11.81-8.849 14.879-1.834 1.583-4.469 1.583-6.303 0-3.555-3.069-8.849-8.68-8.849-14.879 0-3.183 1.264-6.235 3.515-8.485s5.303-3.515 8.485-3.515c3.183 0 6.235 1.264 8.485 3.515s3.515 5.303 3.515 8.485z"></path>
            <path stroke-linejoin="round" stroke-linecap="round" stroke-miterlimit="4" stroke-width="3" d="M17.537 17.334c2.209 0 4-1.791 4-4s-1.791-4-4-4c-2.209 0-4 1.791-4 4s1.791 4 4 4z"></path>
        </symbol>
        <symbol id="icon-calendar" viewBox="0 0 34 32">
            <path stroke-linejoin="round" stroke-linecap="round" stroke-miterlimit="4" stroke-width="3" d="M26.333 5.334h-18.667c-1.473 0-2.667 1.194-2.667 2.667v18.667c0 1.473 1.194 2.667 2.667 2.667h18.667c1.473 0 2.667-1.194 2.667-2.667v-18.667c0-1.473-1.194-2.667-2.667-2.667z"></path>
            <path stroke-linejoin="round" stroke-linecap="round" stroke-miterlimit="4" stroke-width="3" d="M21.001 18.668l-4.167 5.333-2.5-2.51"></path>
            <path stroke-linejoin="round" stroke-linecap="round" stroke-miterlimit="4" stroke-width="3" d="M22.334 2.668v5.333"></path>
            <path stroke-linejoin="round" stroke-linecap="round" stroke-miterlimit="4" stroke-width="3" d="M11.666 2.668v5.333"></path>
            <path stroke-linejoin="round" stroke-linecap="round" stroke-miterlimit="4" stroke-width="3" d="M5 13.334h24"></path>
        </symbol>
        <symbol id="icon-horizontal-line" viewBox="0 0 4480 32">
            <path stroke-linejoin="miter" stroke-linecap="butt" stroke-miterlimit="4" stroke-width="16" d="M4480 16l-4480 0.004"></path>
        </symbol>
        <symbol id="icon-vertical-line" viewBox="0 0 0 32">
            <path stroke-linejoin="miter" stroke-linecap="butt" stroke-miterlimit="4" stroke-width="0.1475" d="M0.147 0v32"></path>
        </symbol>   
        <symbol id="icon-left-decoration" viewBox="0 0 82 32">
            <path d="M35.014 4.178c-4.506-2.694-10.272-4.178-16.239-4.178l-437.872 0v32h500.645l-46.534-27.823z"></path>
        </symbol>
        <symbol id="icon-right-decoration" viewBox="0 0 76 32">
            <path d="M46.534 4.178c4.506-2.694 10.272-4.178 16.239-4.178l437.872 0v32h-500.645l46.534-27.823z"></path>
        </symbol>
        <symbol id="icon-content-check" viewBox="0 0 32 32">
            <path stroke-linejoin="round" stroke-linecap="round" stroke-miterlimit="4" stroke-width="4" d="M26.667 8l-14.667 14.667-6.667-6.667"></path>
        </symbol>
        <symbol id="icon-plumbing" viewBox="0 0 33 32">
            <path d="M27.083 5.889l-3.183-3.048c-1.171-1.121-3.078-1.121-4.25 0l-4.25 4.069 3.183 3.048 3.183-3.048 5.316 5.090c0.844-0.812 1.318-1.91 1.318-3.055s-0.474-2.244-1.318-3.055z"></path>
            <path d="M7.016 18.386c0.821 0.819 2.142 0.819 2.949 0l3.436-3.429-2.949-2.957-3.436 3.429c-0.821 0.819-0.821 2.138 0 2.957z"></path>
            <path d="M20.833 10.134l4.139 4.011c0.136 0.131 0.244 0.287 0.317 0.458s0.111 0.355 0.111 0.541-0.038 0.369-0.111 0.541c-0.074 0.171-0.181 0.327-0.317 0.458s-0.297 0.235-0.475 0.306c-0.178 0.071-0.368 0.108-0.56 0.108s-0.382-0.037-0.56-0.108c-0.178-0.071-0.339-0.175-0.475-0.306l-13.489 13.026c-1.145 1.106-3.009 1.106-4.154 0s-1.145-2.906 0-4.011l10.377-10.021-4.668-4.508c-0.206-0.196-0.369-0.43-0.481-0.688s-0.169-0.535-0.169-0.814c0-0.28 0.057-0.556 0.169-0.814s0.275-0.492 0.481-0.688c0.851-0.836 2.246-0.836 3.112 0.014l4.668 4.507 2.084-2.013z"></path>
        </symbol>
        <symbol id="icon-roof" viewBox="0 0 33 32">
            <path d="M11.529 11.925h-5.040l-0.28 0.539h5.011l-2.19 3.826h-4.808l-0.28 0.539h4.78l-2.017 3.524h-4.616l1.241-2.386v-1.137h0.015v-0.539h-0.015v-3.826h0.015v-0.539h-0.015v-0.286h0.015v-1.064h3.829l1.413-2.716h5.269l-2.328 4.066z"></path>
            <path d="M14.477 7.859l-2.328 4.066h4.376l2.328-4.066h-4.376z"></path>
            <path d="M19.474 7.859l-2.328 4.066h4.711l1.041-2.031 7.071 14.247h2.713l-8.47-16.282h-4.739z"></path>
            <path d="M21.581 12.464h-4.744l-2.19 3.826h4.973l1.961-3.826z"></path>
            <path d="M19.345 16.828h-5.005l-2.017 3.524h5.217l1.806-3.524z"></path>
            <path d="M17.263 20.89h-5.249l-1.861 3.251h5.444l1.666-3.251z"></path>
            <path d="M9.532 24.141l1.861-3.251h-4.376l-1.861 3.251h4.376z"></path>
            <path d="M4.536 24.141l1.861-3.251h-4.588l-1.691 3.251h4.418z"></path>
            <path d="M11.841 12.464h4.376l-2.19 3.826h-4.376l2.19-3.826z"></path>
            <path d="M9.343 16.828l-2.017 3.524h4.376l2.017-3.524h-4.376z"></path>
            <path d="M20.31 17.978h2.374v2.374h-2.374v-2.374z"></path>
            <path d="M20.31 20.946h2.374v2.374h-2.374v-2.374z"></path>
            <path d="M25.652 17.978h-2.374v2.374h2.374v-2.374z"></path>
            <path d="M23.277 20.946h2.374v2.374h-2.374v-2.374z"></path>
        </symbol>
        <symbol id="icon-Wall" viewBox="0 0 33 32">
            <path d="M4.4 7.2c0-0.442 0.358-0.8 0.8-0.8h9.665c0.442 0 0.8 0.358 0.8 0.8v3.805c0 0.442-0.358 0.8-0.8 0.8h-9.665c-0.442 0-0.8-0.358-0.8-0.8v-3.805z"></path>
            <path d="M4.4 14.497c0-0.442 0.358-0.8 0.8-0.8h4.767c0.442 0 0.8 0.358 0.8 0.8v3.805c0 0.442-0.358 0.8-0.8 0.8h-4.767c-0.442 0-0.8-0.358-0.8-0.8v-3.805z"></path>
            <path d="M12.237 14.497c0-0.442 0.358-0.8 0.8-0.8h9.665c0.442 0 0.8 0.358 0.8 0.8v3.805c0 0.442-0.358 0.8-0.8 0.8h-9.665c-0.442 0-0.8-0.358-0.8-0.8v-3.805z"></path>
            <path d="M4.4 21.795c0-0.442 0.358-0.8 0.8-0.8h9.665c0.442 0 0.8 0.358 0.8 0.8v3.805c0 0.442-0.358 0.8-0.8 0.8h-9.665c-0.442 0-0.8-0.358-0.8-0.8v-3.805z"></path>
            <path d="M17.135 21.795c0-0.442 0.358-0.8 0.8-0.8h9.665c0.442 0 0.8 0.358 0.8 0.8v3.805c0 0.442-0.358 0.8-0.8 0.8h-9.665c-0.442 0-0.8-0.358-0.8-0.8v-3.805z"></path>
        </symbol>
        <symbol id="icon-tree" viewBox="0 0 33 32">
                <path d="M28.177 2.367h-2.82c-0.178 0-0.341 0.101-0.42 0.26l-2.4 4.8-2.4-4.8c-0.080-0.159-0.242-0.26-0.421-0.26h-10.342c-0.26 0-0.47 0.21-0.47 0.47v12.306l-4.448-2.831c-0.185-0.118-0.429-0.092-0.585 0.064l-2.35 2.35c-0.176 0.176-0.185 0.459-0.019 0.645l7.402 8.328v5.462c0 0.26 0.21 0.47 0.47 0.47h5.171v-7.521c0-0.26 0.21-0.47 0.47-0.47s0.47 0.21 0.47 0.47v7.521h12.692c0.26 0 0.47-0.21 0.47-0.47v-26.325c0-0.26-0.21-0.47-0.47-0.47zM15.485 19.29c0 0.26-0.21 0.47-0.47 0.47s-0.47-0.21-0.47-0.47v-0.94c0-0.26 0.21-0.47 0.47-0.47s0.47 0.21 0.47 0.47v0.94z"></path>
        </symbol>
        <symbol id="icon-repair" viewBox="0 0 33 32">
            <path d="M23.344 6.364c-0.446 0.463-0.689 1.085-0.675 1.727 0.027 1.338 1.136 2.4 2.475 2.373 0.643-0.013 1.255-0.281 1.701-0.744l3.224-3.354c0.638 1.266 0.866 2.698 0.655 4.099s-0.852 2.702-1.835 3.725c-0.983 1.022-2.259 1.715-3.652 1.983s-2.836 0.098-4.128-0.486c-1.707-1.27-2.464-2.006-3.5-3.355-0.638-1.266-0.866-2.698-0.655-4.099s0.853-2.702 1.835-3.724c0.983-1.022 2.259-1.715 3.652-1.983s2.836-0.098 4.128 0.486l-3.224 3.354z"></path>
            <path d="M11.293 19.029l3.518 3.336-5.223 5.541c-0.446 0.463-1.057 0.731-1.701 0.744s-1.265-0.229-1.73-0.674c-0.464-0.445-0.732-1.056-0.745-1.698s0.23-1.264 0.675-1.727l5.205-5.522z"></path>
            <path d="M15.732 13.042l11.434 10.841c1.13 1.072 1.19 2.851 0.135 3.996-1.079 1.171-2.91 1.233-4.065 0.137l-11.434-10.841c-0.931-0.883-1.136-2.246-0.589-3.339l-5.308-5.117-0.984 0.984-2.921-3.935 1.807-1.995 4.224 2.822-0.976 0.976 5.269 5.079c1.068-0.626 2.464-0.504 3.409 0.392z"></path>
        </symbol>
        <symbol id="icon-bathroom" viewBox="0 0 33 32">
            <path d="M30.4 17h-28c-0.265 0-0.52 0.105-0.707 0.293s-0.293 0.442-0.293 0.707v5c0.002 1.591 0.634 3.116 1.759 4.241s2.65 1.758 4.241 1.759h1v2c0 0.265 0.105 0.52 0.293 0.707s0.442 0.293 0.707 0.293c0.265 0 0.52-0.105 0.707-0.293s0.293-0.442 0.293-0.707v-2h12v2c0 0.265 0.105 0.52 0.293 0.707s0.442 0.293 0.707 0.293c0.265 0 0.52-0.105 0.707-0.293s0.293-0.442 0.293-0.707v-2h1c1.591-0.002 3.116-0.634 4.241-1.759s1.758-2.65 1.759-4.241v-5c0-0.265-0.105-0.52-0.293-0.707s-0.442-0.293-0.707-0.293z"></path>
            <path d="M16.4 6.1v-1.1c0-0.796 0.316-1.559 0.879-2.121s1.326-0.879 2.121-0.879 1.559 0.316 2.121 0.879c0.563 0.563 0.879 1.326 0.879 2.121v10h2v-10c0-1.326-0.527-2.598-1.464-3.536s-2.209-1.464-3.536-1.464c-1.326 0-2.598 0.527-3.536 1.464s-1.464 2.209-1.464 3.536v1.1c-1.129 0.232-2.143 0.846-2.871 1.739s-1.127 2.009-1.129 3.161c0 0.265 0.105 0.52 0.293 0.707s0.442 0.293 0.707 0.293h8c0.265 0 0.52-0.105 0.707-0.293s0.293-0.442 0.293-0.707c-0.001-1.152-0.4-2.269-1.129-3.161s-1.743-1.507-2.871-1.739z"></path>
        </symbol>
        <symbol id="icon-door" viewBox="0 0 33 32">
            <path d="M29.436 7.983h-13.456c-0.456-0.447-1.035-0.75-1.662-0.87s-1.277-0.052-1.866 0.196c-0.589 0.248-1.092 0.664-1.446 1.196s-0.542 1.157-0.542 1.796c0 0.639 0.189 1.264 0.542 1.796s0.857 0.948 1.446 1.196c0.589 0.248 1.238 0.316 1.866 0.196s1.206-0.422 1.662-0.87h13.456c0.123 0 0.241-0.049 0.328-0.136s0.136-0.205 0.136-0.328v-3.709c0-0.123-0.049-0.241-0.136-0.328s-0.205-0.136-0.328-0.136z"></path>
            <path d="M17.728 0.584h-9.146c-0.606 0-1.188 0.241-1.617 0.67s-0.67 1.010-0.67 1.617l-0.437 26.261c0 0.606 0.241 1.188 0.67 1.617s1.010 0.67 1.617 0.67h9.146c0.606 0 1.188-0.241 1.617-0.67s0.67-1.010 0.67-1.617l0.437-14.829h-3.056c-1.054 0.852-2.402 1.253-3.751 1.116s-2.589-0.8-3.451-1.846c-0.566-0.686-0.944-1.506-1.098-2.381s-0.079-1.776 0.218-2.613c0.297-0.838 0.806-1.584 1.478-2.166s1.482-0.981 2.353-1.156c0.336-0.066 0.677-0.099 1.020-0.099 1.176-0.003 2.318 0.401 3.231 1.143h3.057v-3.43c0-0.606-0.241-1.188-0.67-1.617s-1.010-0.67-1.617-0.67zM12.718 19.413c0.502-0.002 0.992 0.162 1.391 0.466s0.687 0.733 0.817 1.218c0.13 0.485 0.097 1-0.096 1.464s-0.534 0.851-0.97 1.101v2.609c0 0.152-0.060 0.297-0.167 0.404s-0.253 0.167-0.404 0.167h-1.143c-0.152 0-0.297-0.060-0.404-0.167s-0.167-0.253-0.167-0.404v-2.609c-0.436-0.25-0.777-0.637-0.969-1.101s-0.226-0.979-0.096-1.464c0.131-0.485 0.418-0.914 0.818-1.218s0.889-0.469 1.391-0.466z"></path>
        </symbol>
        <symbol id="icon-guarantee" viewBox="0 0 32 32">
            <path d="M14.417 3.332c1.006-1.036 2.668-1.036 3.674 0l0.574 0.591c0.487 0.501 1.157 0.782 1.856 0.777l0.828-0.006c1.429-0.011 2.59 1.15 2.579 2.579l-0.007 0.917c-0.005 0.686 0.265 1.345 0.75 1.829l0.651 0.651c1 1 1 2.621 0 3.621l-0.651 0.651c-0.485 0.485-0.755 1.144-0.75 1.829l0.007 0.917c0.011 1.429-1.151 2.59-2.579 2.579l-0.828-0.006c-0.699-0.005-1.369 0.275-1.856 0.777l-0.574 0.591c-1.005 1.036-2.668 1.036-3.674 0l-0.574-0.591c-0.487-0.501-1.157-0.782-1.856-0.777l-0.828 0.006c-1.429 0.011-2.59-1.15-2.579-2.579l0.007-0.917c0.005-0.686-0.265-1.345-0.75-1.829l-0.651-0.651c-1-1-1-2.621 0-3.621l0.651-0.651c0.485-0.485 0.755-1.144 0.75-1.829l-0.007-0.917c-0.011-1.429 1.151-2.59 2.579-2.579l0.828 0.006c0.699 0.005 1.369-0.275 1.856-0.777l0.574-0.591zM16.797 12.343l-0.587-0.588c-0.135-0.135-0.317-0.21-0.507-0.211s-0.373 0.074-0.508 0.208l-4.084 3.769c-0.149 0.14-0.246 0.319-0.255 0.519-0.004 0.099 0.012 0.198 0.047 0.291s0.090 0.177 0.16 0.248l0.879 0.889c0.136 0.135 0.319 0.211 0.511 0.212h0.027c0.2-0.007 0.379-0.101 0.521-0.251l3.796-4.066c0.067-0.067 0.121-0.146 0.157-0.234s0.056-0.181 0.056-0.276c0-0.095-0.018-0.189-0.054-0.276s-0.089-0.167-0.156-0.234zM21.519 11.155l-0.007-0.007-0.771-0.763c-0.045-0.045-0.099-0.081-0.158-0.105s-0.122-0.036-0.186-0.036c-0.103 0-0.204 0.033-0.288 0.093 0-0.007 0.001-0.014 0.001-0.020l0.001-0.008 0-0.001c0.010-0.146 0.025-0.366-0.117-0.566-0.17-0.229-0.356-0.445-0.558-0.647l-0.001-0.001-0.001-0.001c-0.3-0.295-0.952-0.851-1.951-1.259-0.379-0.156-0.785-0.235-1.194-0.235-0.71 0-1.25 0.32-1.457 0.51-0.117 0.112-0.224 0.234-0.319 0.365-0.045 0.063-0.069 0.139-0.068 0.216s0.027 0.153 0.074 0.214c0.047 0.062 0.113 0.106 0.187 0.127s0.154 0.018 0.226-0.010c0.063-0.024 0.128-0.043 0.193-0.059 0.136-0.029 0.276-0.038 0.415-0.026 0.297 0.025 0.648 0.172 0.803 0.295 0.263 0.212 0.39 0.497 0.411 0.925 0.004 0.086-0.174 0.408-0.45 0.776-0.053 0.069-0.078 0.155-0.072 0.242s0.043 0.169 0.105 0.23l0.774 0.774c0.065 0.065 0.153 0.103 0.245 0.106s0.182-0.030 0.25-0.092c0.219-0.196 0.552-0.49 0.669-0.562 0.173-0.106 0.297-0.127 0.331-0.131 0.088-0.009 0.177 0.010 0.254 0.054 0 0.004-0 0.008-0.001 0.011-0.001 0.002-0.002 0.005-0.003 0.007s-0.002 0.002-0.003 0.003l-0.041 0.039-0.007 0.006c-0.045 0.045-0.081 0.099-0.106 0.158s-0.037 0.122-0.037 0.186c0 0.064 0.013 0.127 0.037 0.186s0.061 0.112 0.106 0.157l0.771 0.763c0.045 0.045 0.099 0.081 0.158 0.105s0.122 0.036 0.186 0.036c0.128 0 0.251-0.050 0.342-0.14l1.249-1.233c0.004-0.004 0.009-0.009 0.013-0.013 0.084-0.092 0.13-0.212 0.129-0.336s-0.049-0.244-0.135-0.334z"></path>
            <path d="M18.124 23.917l2.88 5.567c0.234 0.452 0.875 0.464 1.126 0.021l1.46-2.585-1.483-2.426c-0.184-0.302-0.089-0.696 0.212-0.88s0.696-0.089 0.88 0.212l1.499 2.453 3.061 0.312c0.506 0.052 0.867-0.479 0.633-0.931l-3.048-5.891c-0.751 1.445-2.268 2.43-4.012 2.416l-0.828-0.006c-0.175-0.001-0.342 0.069-0.464 0.194l-0.574 0.591c-0.398 0.41-0.855 0.727-1.344 0.952z"></path>
            <path d="M7.443 20.238l-2.806 5.423c-0.234 0.452 0.127 0.982 0.633 0.931l3.015-0.307 1.502-2.458c0.184-0.302 0.578-0.397 0.88-0.212s0.397 0.578 0.212 0.88l-1.46 2.389 1.481 2.622c0.25 0.443 0.892 0.431 1.126-0.021l2.791-5.395c-0.653-0.22-1.265-0.595-1.778-1.124l-0.574-0.591c-0.122-0.125-0.289-0.195-0.464-0.194l-0.828 0.006c-1.548 0.012-2.917-0.763-3.731-1.948z"></path>
        </symbol>
        <symbol id="icon-quotes" viewBox="0 0 32 32">
            <path d="M18.591 4.977c0-0.076-0.030-0.149-0.084-0.203s-0.127-0.084-0.203-0.084h-8.046c-0.838 0-1.642 0.333-2.235 0.926s-0.926 1.397-0.926 2.235v16.092c0 0.838 0.333 1.642 0.926 2.235s1.397 0.926 2.235 0.926h11.494c0.838 0 1.642-0.333 2.235-0.926s0.926-1.397 0.926-2.235v-1.266l-0.38 0.379-3.092 0.712-0.104 0.010c-0.129 0.013-0.258 0.015-0.387 0.007-0.313-0.013-0.621-0.090-0.904-0.227-0.306-0.148-0.576-0.364-0.789-0.629s-0.363-0.576-0.441-0.908c-0.078-0.332-0.080-0.676-0.007-1.009l0.002-0.010 0.691-2.984 5.409-5.424c-0.006-0.068-0.035-0.131-0.083-0.18-0.054-0.054-0.127-0.084-0.203-0.084h-5.172c-0.229 0-0.448-0.091-0.61-0.253s-0.253-0.381-0.253-0.61v-6.491zM9.384 14.069c0-0.457 0.371-0.828 0.828-0.828h3.586c0.457 0 0.828 0.371 0.828 0.828s-0.371 0.828-0.828 0.828h-3.586c-0.457 0-0.828-0.371-0.828-0.828zM9.384 18.207c0-0.457 0.371-0.828 0.828-0.828h6.345c0.457 0 0.828 0.371 0.828 0.828s-0.371 0.828-0.828 0.828h-6.345c-0.457 0-0.828-0.371-0.828-0.828zM9.384 22.345c0-0.457 0.371-0.828 0.828-0.828h6.345c0.457 0 0.828 0.371 0.828 0.828s-0.371 0.828-0.828 0.828h-6.345c-0.457 0-0.828-0.371-0.828-0.828z"></path>
            <path d="M24.913 20.34v-5.403l-3.905 3.915-0.582 2.513c-0.020 0.092-0.019 0.187 0.002 0.279s0.063 0.177 0.122 0.251 0.133 0.133 0.218 0.174c0.085 0.041 0.177 0.063 0.271 0.063 0.044 0.004 0.088 0.004 0.132 0l2.529-0.582 1.213-1.21z"></path>
            <path d="M20.411 5.654c0-0.201 0.202-0.328 0.351-0.203 0.126 0.107 0.24 0.231 0.337 0.373l3.147 4.578c0.071 0.105-0.006 0.24-0.129 0.24h-3.444c-0.069 0-0.136-0.029-0.185-0.080s-0.076-0.12-0.076-0.193v-4.716z"></path>
            <path d="M21.008 18.852l-0.582 2.513c-0.020 0.092-0.019 0.187 0.002 0.279s0.063 0.177 0.122 0.251 0.133 0.133 0.218 0.174c0.085 0.041 0.177 0.063 0.271 0.063 0.044 0.004 0.088 0.004 0.132 0l2.529-0.582 4.436-4.424-2.71-2.703-4.418 4.43z"></path>
            <path d="M30.081 14.291l-1.808-1.808c-0.119-0.118-0.28-0.185-0.447-0.185s-0.329 0.066-0.448 0.185l-1.005 1.005 2.707 2.706 1.005-1.005c0.059-0.059 0.105-0.129 0.137-0.206s0.048-0.16 0.048-0.243c-0-0.083-0.017-0.166-0.049-0.243s-0.079-0.147-0.139-0.206z"></path>
        </symbol>
        <symbol id="icon-local" viewBox="0 0 32 32">
            <path d="M13.214 26.56l-7.36 0.96-1.12-5.28 5.6-0.96 2.88 5.28z"></path>
            <path d="M29.214 26.080l-6.72 0.8-1.12-5.28 4.96-0.8 2.88 5.28z"></path>
            <path d="M13.382 23.322l-0.328 0.038 2.72 4.8 5.28-0.32-1.109-5.23c-0.244 0.221-0.48 0.427-0.702 0.616-1.697 1.444-4.13 1.476-5.86 0.096z"></path>
            <path d="M18.205 22.008c2.459-2.093 6.369-6.122 6.369-10.589 0-2.222-0.877-4.353-2.437-5.924s-3.677-2.454-5.883-2.454-4.323 0.883-5.883 2.454c-1.56 1.571-2.437 3.702-2.437 5.924 0 4.467 3.91 8.497 6.369 10.589 1.138 0.968 2.764 0.968 3.902 0zM20.094 11.36c0 2.121-1.719 3.84-3.84 3.84s-3.84-1.719-3.84-3.84 1.719-3.84 3.84-3.84c2.121 0 3.84 1.719 3.84 3.84z"></path>
        </symbol>
        <symbol id="icon-hours" viewBox="0 0 32 32">
            <path d="M14.793 18.043c0.006-0.005 0.012-0.010 0.018-0.015s0.011-0.010 0.016-0.015c0.022-0.022 0.041-0.046 0.057-0.073 0.045-0.075 0.068-0.167 0.068-0.278 0-0.151-0.042-0.266-0.126-0.345-0.048-0.048-0.11-0.081-0.185-0.1-0.050-0.013-0.105-0.019-0.167-0.019h-1.258l0.725-0.716c0.105-0.103 0.198-0.202 0.28-0.299 0.008-0.009 0.016-0.019 0.023-0.028 0.058-0.071 0.11-0.139 0.155-0.206 0.117-0.167 0.201-0.335 0.251-0.502 0.054-0.167 0.082-0.339 0.082-0.515 0-0.28-0.061-0.515-0.182-0.703-0.121-0.193-0.299-0.339-0.534-0.439-0.106-0.046-0.223-0.082-0.352-0.107-0.153-0.029-0.322-0.044-0.508-0.044-0.054 0-0.109 0.002-0.163 0.005-0.155 0.009-0.31 0.030-0.465 0.064-0.019 0.004-0.038 0.009-0.058 0.014l-0.015 0.004-0.016 0.004c-0.086 0.023-0.171 0.052-0.255 0.085s-0.166 0.072-0.247 0.116l-0.004 0.002c-0.015 0.008-0.028 0.016-0.042 0.024-0.087 0.055-0.148 0.122-0.184 0.202-0.042 0.088-0.056 0.178-0.044 0.27 0.017 0.092 0.054 0.174 0.113 0.245 0.063 0.071 0.138 0.117 0.226 0.138 0.092 0.021 0.195 0.006 0.308-0.044 0.019-0.010 0.039-0.020 0.058-0.029l0.003-0.002c0.077-0.037 0.151-0.065 0.221-0.087 0.028-0.008 0.055-0.015 0.082-0.021 0.019-0.005 0.037-0.009 0.056-0.013l0.004-0.001c0.091-0.020 0.178-0.030 0.261-0.030 0.058 0 0.113 0.004 0.163 0.011 0.087 0.012 0.162 0.035 0.225 0.068 0.023 0.012 0.044 0.026 0.064 0.041 0.105 0.080 0.157 0.199 0.157 0.358 0 0.126-0.036 0.251-0.107 0.377-0.017 0.032-0.037 0.066-0.061 0.102-0.048 0.072-0.108 0.151-0.182 0.236l-0.003 0.004c-0.031 0.036-0.064 0.072-0.099 0.11l-1.099 1.149c-0.049 0.052-0.093 0.104-0.132 0.157l-0.005 0.007-0.005 0.007c-0.024 0.033-0.045 0.066-0.065 0.099-0.050 0.092-0.075 0.197-0.075 0.314 0 0.167 0.040 0.295 0.119 0.383 0.058 0.058 0.139 0.095 0.244 0.113 0.048 0.008 0.1 0.012 0.158 0.012h2.185c0.134 0 0.24-0.030 0.318-0.090z"></path>
            <path d="M17.141 17.392h-1.262c-0.184 0-0.329-0.042-0.433-0.126-0.1-0.084-0.151-0.211-0.151-0.383 0-0.012 0-0.024 0.001-0.036 0-0.009 0.001-0.018 0.002-0.026 0.001-0.011 0.002-0.021 0.003-0.032 0.008-0.067 0.025-0.132 0.051-0.195 0.009-0.024 0.021-0.049 0.034-0.075 0.007-0.013 0.014-0.027 0.021-0.041 0.022-0.040 0.048-0.083 0.077-0.129 0.021-0.032 0.044-0.065 0.069-0.1l1.532-2.235c0.084-0.126 0.178-0.218 0.283-0.276s0.228-0.088 0.37-0.088c0.159 0 0.285 0.048 0.377 0.144 0.092 0.092 0.138 0.234 0.138 0.427v2.298h0.151c0.117 0 0.212 0.020 0.286 0.061 0.021 0.011 0.040 0.024 0.057 0.039 0.005 0.004 0.010 0.009 0.015 0.013 0.003 0.003 0.006 0.005 0.008 0.008 0.016 0.015 0.031 0.032 0.043 0.050 0.049 0.069 0.074 0.156 0.074 0.262 0 0.066-0.009 0.125-0.027 0.177-0.006 0.016-0.012 0.031-0.019 0.046-0.020 0.040-0.046 0.074-0.079 0.104-0.005 0.005-0.010 0.009-0.015 0.013-0.079 0.067-0.194 0.1-0.343 0.1h-0.151v0.226c0 0.080-0.009 0.153-0.027 0.217-0.024 0.083-0.063 0.153-0.117 0.21l-0.002 0.002c-0.092 0.095-0.228 0.143-0.407 0.143-0.176 0-0.314-0.048-0.414-0.144-0.096-0.096-0.144-0.239-0.144-0.427v-0.226zM17.141 16.519v-1.221l-0.823 1.221h0.823z"></path>
            <path d="M19.114 15.746c0.005-0.028 0.013-0.054 0.024-0.077 0.013-0.030 0.031-0.055 0.053-0.077s0.047-0.039 0.076-0.053c0.045-0.021 0.097-0.031 0.158-0.032h0.004c0.010 0 0.020 0 0.030 0.001 0.004 0 0.008 0 0.011 0.001 0.086 0.007 0.153 0.034 0.202 0.083 0.011 0.010 0.021 0.022 0.029 0.034 0.034 0.047 0.054 0.107 0.058 0.181 0.001 0.010 0.001 0.021 0.001 0.032v0.706c0.020-0.027 0.041-0.051 0.065-0.074 0.038-0.037 0.080-0.068 0.127-0.095 0.042-0.023 0.086-0.042 0.132-0.057 0.012-0.004 0.024-0.007 0.037-0.010 0.065-0.017 0.133-0.025 0.206-0.025 0.145 0 0.263 0.028 0.357 0.085 0.027 0.016 0.053 0.034 0.076 0.056 0.003 0.003 0.007 0.006 0.010 0.010l0.005 0.005 0 0c0.049 0.049 0.088 0.111 0.118 0.186 0.047 0.115 0.070 0.261 0.070 0.438v0.772c0 0.108-0.028 0.19-0.085 0.246-0.036 0.036-0.081 0.060-0.136 0.073-0.032 0.008-0.068 0.011-0.107 0.011-0.105 0-0.186-0.028-0.243-0.085s-0.085-0.138-0.085-0.246v-0.746c0-0.009-0-0.017-0-0.026-0-0.015-0.001-0.029-0.002-0.042l-0.001-0.010-0.001-0.006-0.001-0.008-0.001-0.004c-0.003-0.018-0.006-0.035-0.010-0.051-0.006-0.024-0.015-0.045-0.025-0.063l-0.003-0.004c-0.005-0.008-0.010-0.014-0.015-0.021-0.014-0.018-0.031-0.033-0.051-0.044-0.003-0.001-0.005-0.003-0.008-0.004-0.021-0.010-0.044-0.017-0.070-0.020-0.012-0.001-0.024-0.002-0.037-0.002-0.030 0-0.058 0.003-0.084 0.009-0.038 0.009-0.073 0.024-0.103 0.045-0.017 0.012-0.033 0.026-0.048 0.042-0.021 0.022-0.038 0.046-0.051 0.073-0.020 0.040-0.031 0.085-0.035 0.136-0.001 0.013-0.002 0.027-0.002 0.040v0.706c0 0.221-0.11 0.331-0.331 0.331-0.037 0-0.071-0.004-0.102-0.011-0.010-0.002-0.020-0.005-0.030-0.008-0.035-0.012-0.066-0.029-0.092-0.052-0.003-0.003-0.006-0.005-0.009-0.008s-0.004-0.004-0.006-0.006c-0.056-0.056-0.085-0.138-0.085-0.246v-1.996c0-0.033 0.003-0.064 0.008-0.092z"></path>
            <path d="M2.867 15.84c0-7.364 5.969-13.333 13.333-13.333s13.333 5.969 13.333 13.333c0 7.364-5.969 13.333-13.333 13.333s-13.333-5.969-13.333-13.333zM11.171 18.725c0.357 0.357 0.812 0.423 1.119 0.423h2.185c0.32 0 0.737-0.084 1.069-0.417 0.102-0.102 0.182-0.212 0.243-0.326 0.031 0.001 0.061 0.002 0.091 0.002h0.428c0.064 0.124 0.149 0.245 0.261 0.356 0.005 0.005 0.010 0.010 0.015 0.015 0.336 0.322 0.751 0.427 1.116 0.427 0.286 0 0.626-0.063 0.927-0.274 0.264 0.192 0.561 0.25 0.803 0.25 0.17 0 0.389-0.027 0.607-0.129 0.208 0.097 0.421 0.129 0.599 0.129 0.285 0 0.658-0.080 0.96-0.382 0.306-0.306 0.382-0.684 0.382-0.964v-0.772c0-0.255-0.032-0.54-0.143-0.815-0.115-0.287-0.317-0.566-0.635-0.753-0.173-0.103-0.354-0.164-0.527-0.196-0.061-0.149-0.153-0.298-0.291-0.432-0.301-0.296-0.67-0.374-0.953-0.374-0.052 0-0.107 0.003-0.163 0.009v-0.28c0-0.331-0.077-0.781-0.427-1.136-0.319-0.329-0.727-0.45-1.102-0.45-0.283 0-0.584 0.059-0.866 0.217-0.274 0.153-0.477 0.369-0.627 0.593l-0.576 0.84c-0.054-0.208-0.139-0.411-0.262-0.603-0.243-0.384-0.59-0.655-0.987-0.825-0.395-0.172-0.829-0.234-1.263-0.234-0.284 0-0.567 0.031-0.846 0.093l-0.004 0.001c-0.3 0.067-0.586 0.177-0.857 0.324-0.257 0.139-0.51 0.36-0.663 0.69-0.12 0.255-0.17 0.541-0.129 0.836 0.002 0.015 0.004 0.030 0.007 0.044 0.047 0.26 0.158 0.502 0.328 0.708 0.007 0.009 0.015 0.018 0.022 0.026 0.194 0.22 0.45 0.382 0.752 0.454l0.010 0.002c0.016 0.004 0.031 0.007 0.047 0.010l-0.506 0.53c-0.13 0.136-0.248 0.287-0.346 0.454-0.006 0.010-0.012 0.020-0.017 0.030-0.141 0.258-0.199 0.533-0.199 0.8 0 0.316 0.075 0.725 0.382 1.064 0.011 0.013 0.023 0.025 0.035 0.037zM14.014 8.508c0.265-0.083 0.531-0.15 0.797-0.204 4.248-0.828 8.381 1.914 9.261 6.163 0.73 3.527-1.010 6.992-4.041 8.597-0.028 0.011-0.057 0.024-0.085 0.038-0.315 0.16-0.645 0.3-0.988 0.419l0.243-0.647c0.187-0.497-0.064-1.052-0.562-1.24s-1.052 0.064-1.24 0.562l-0.957 2.541c-0.155 0.413-0.010 0.879 0.353 1.13l2.145 1.484c0.437 0.302 1.036 0.193 1.339-0.244s0.193-1.036-0.244-1.339l-0.552-0.382c1.849-0.625 3.414-1.767 4.563-3.226 0.048-0.042 0.092-0.089 0.132-0.142 0.67-0.879 1.188-1.865 1.531-2.915 0.026-0.081 0.042-0.162 0.046-0.243 0.36-1.213 0.489-2.51 0.348-3.829 0.015-0.093 0.017-0.189 0.004-0.287-0.073-0.539-0.192-1.078-0.358-1.613s-0.375-1.046-0.621-1.531c-0.044-0.088-0.1-0.165-0.165-0.233-0.622-1.145-1.46-2.138-2.447-2.938-0.053-0.071-0.116-0.136-0.19-0.192-0.879-0.67-1.865-1.188-2.915-1.531-0.070-0.023-0.141-0.037-0.211-0.044-1.27-0.39-2.635-0.527-4.022-0.363-0.042 0-0.084 0.003-0.127 0.009-0.428 0.058-0.856 0.145-1.283 0.262-2.62 0.701-4.731 2.416-5.992 4.625-0.046 0.080-0.079 0.164-0.1 0.249-0.265 0.5-0.488 1.022-0.664 1.561-0.166 0.506 0.111 1.051 0.617 1.216s1.051-0.111 1.216-0.617c0.276-0.845 0.693-1.639 1.232-2.346 0.047-0.062 0.086-0.127 0.116-0.196 0.663-0.812 1.488-1.496 2.44-1.996 0.049-0.016 0.098-0.035 0.145-0.059 0.389-0.197 0.801-0.365 1.233-0.5zM7.443 16.28c-0.528 0.072-0.898 0.557-0.826 1.085 0.073 0.539 0.192 1.078 0.358 1.613s0.375 1.046 0.621 1.531c0.241 0.475 0.821 0.665 1.296 0.424s0.665-0.821 0.424-1.296c-0.197-0.389-0.365-0.801-0.5-1.233s-0.23-0.866-0.289-1.299c-0.072-0.528-0.557-0.898-1.085-0.826zM11.567 22.339c-0.424-0.323-1.029-0.241-1.351 0.183s-0.241 1.029 0.183 1.351c0.879 0.669 1.865 1.188 2.915 1.531 0.506 0.166 1.051-0.111 1.216-0.617s-0.111-1.051-0.617-1.216c-0.845-0.276-1.639-0.693-2.346-1.232z"></path>
            <path d="M12.29 18.133c-0.184 0-0.318-0.042-0.402-0.126-0.080-0.088-0.119-0.216-0.119-0.383 0-0.117 0.025-0.222 0.075-0.314 0.054-0.092 0.123-0.182 0.207-0.27l1.099-1.149c0.163-0.176 0.278-0.326 0.345-0.452 0.071-0.126 0.107-0.251 0.107-0.377 0-0.159-0.052-0.278-0.157-0.358s-0.255-0.119-0.452-0.119c-0.1 0-0.207 0.015-0.32 0.044-0.113 0.025-0.234 0.071-0.364 0.138-0.113 0.050-0.216 0.065-0.308 0.044-0.088-0.021-0.163-0.067-0.226-0.138-0.059-0.071-0.096-0.153-0.113-0.245-0.013-0.092 0.002-0.182 0.044-0.27 0.042-0.092 0.117-0.167 0.226-0.226 0.193-0.105 0.391-0.18 0.596-0.226 0.209-0.046 0.419-0.069 0.628-0.069 0.343 0 0.63 0.050 0.86 0.151 0.234 0.1 0.412 0.247 0.534 0.439 0.121 0.188 0.182 0.423 0.182 0.703 0 0.176-0.027 0.347-0.082 0.515-0.050 0.167-0.134 0.335-0.251 0.502-0.113 0.167-0.266 0.345-0.458 0.534l-1.017 1.005v-0.289l1.551-0c0.155 0 0.272 0.040 0.352 0.119 0.084 0.080 0.126 0.195 0.126 0.345s-0.042 0.268-0.126 0.352c-0.080 0.080-0.197 0.119-0.352 0.119h-2.185z"></path>
            <path d="M17.7 18.189c-0.176 0-0.314-0.048-0.414-0.144-0.096-0.096-0.144-0.239-0.144-0.427v-0.226h-1.262c-0.184 0-0.329-0.042-0.433-0.126-0.1-0.084-0.151-0.211-0.151-0.383 0-0.1 0.019-0.197 0.056-0.289 0.038-0.096 0.105-0.211 0.201-0.345l1.532-2.235c0.084-0.126 0.178-0.218 0.283-0.276s0.228-0.088 0.37-0.088c0.159 0 0.285 0.048 0.377 0.144 0.092 0.092 0.138 0.234 0.138 0.427v2.298h0.151c0.159 0 0.278 0.038 0.358 0.113 0.084 0.075 0.126 0.182 0.126 0.32 0 0.142-0.042 0.251-0.126 0.326-0.080 0.075-0.199 0.113-0.358 0.113h-0.151v0.226c0 0.184-0.048 0.326-0.144 0.427-0.092 0.096-0.228 0.144-0.408 0.144zM17.141 16.519l0-1.482h0.176l-1.18 1.752v-0.27l1.004-0z"></path>
            <path d="M19.43 18.166c-0.103 0-0.183-0.028-0.239-0.085s-0.085-0.138-0.085-0.246v-1.996c0-0.108 0.028-0.19 0.085-0.246s0.136-0.085 0.239-0.085c0.105 0 0.186 0.028 0.243 0.085 0.059 0.056 0.088 0.138 0.088 0.246v0.802h-0.059c0.059-0.115 0.142-0.203 0.25-0.265 0.11-0.061 0.235-0.092 0.375-0.092 0.145 0 0.263 0.028 0.357 0.085 0.093 0.054 0.163 0.14 0.21 0.257 0.047 0.115 0.070 0.261 0.070 0.438v0.772c0 0.108-0.028 0.19-0.085 0.246s-0.137 0.085-0.243 0.085-0.186-0.028-0.243-0.085c-0.056-0.056-0.085-0.138-0.085-0.246v-0.746c0-0.11-0.020-0.189-0.059-0.235-0.037-0.047-0.092-0.070-0.165-0.070-0.098 0-0.176 0.032-0.235 0.096-0.059 0.061-0.088 0.145-0.088 0.25v0.706c0 0.221-0.11 0.331-0.331 0.331z"></path>
        </symbol>
        <symbol id="icon-calendar" viewBox="0 0 32 32">
            <path d="M22.219 4.349c-0.001-0.594-0.449-1.040-1.015-1.039-0.579 0.001-1.014 0.447-1.012 1.042l0.001 0.946-7.82 0.011-0.001-0.946c-0.001-0.594-0.436-1.040-1.015-1.039-0.579 0-1.014 0.447-1.012 1.042l0.001 1.013c-3.673 0.342-6.013 2.872-6.008 6.789l0.014 9.99c0.005 4.254 2.667 6.927 6.855 6.921l9.29-0.012c-1.815-1.138-3.017-3.126-3.017-5.387 0-1.356 0.432-2.614 1.17-3.649-0.147-0.105-0.243-0.277-0.243-0.472v-1.876c0-0.32 0.259-0.579 0.579-0.579h1.876c0.32 0 0.579 0.259 0.579 0.579v0.119c0.797-0.336 1.675-0.522 2.598-0.522 1.642 0 3.143 0.588 4.293 1.561l-0.010-6.758c-0.004-3.891-2.43-6.428-6.103-6.72l-0.001-1.013zM12.376 7.389l7.82-0.011 0.001 1.094c0 0.581 0.436 1.040 1.015 1.039 0.566 0 1.012-0.461 1.012-1.042l-0.001-1.040c2.58 0.227 4.018 1.751 4.074 4.656v0.473l-19.931 0.027-0.001-0.42c-0.004-2.93 1.416-4.46 3.984-4.721l0.001 1.040c0 0.582 0.436 1.040 1.015 1.039 0.579 0 1.012-0.459 1.012-1.042l-0.001-1.093zM7.373 17.683c0-0.32 0.259-0.579 0.579-0.579h1.876c0.32 0 0.579 0.259 0.579 0.579v1.876c0 0.32-0.259 0.579-0.579 0.579h-1.876c-0.32 0-0.579-0.259-0.579-0.579v-1.876zM7.952 22.069c-0.32 0-0.579 0.259-0.579 0.579v1.876c0 0.32 0.259 0.579 0.579 0.579h1.876c0.32 0 0.579-0.259 0.579-0.579v-1.876c0-0.32-0.259-0.579-0.579-0.579h-1.876zM12.89 17.683c0-0.32 0.259-0.579 0.579-0.579h1.876c0.32 0 0.579 0.259 0.579 0.579v1.876c0 0.32-0.259 0.579-0.579 0.579h-1.876c-0.32 0-0.579-0.259-0.579-0.579v-1.876zM13.469 22.069c-0.32 0-0.579 0.259-0.579 0.579v1.876c0 0.32 0.259 0.579 0.579 0.579h1.876c0.32 0 0.579-0.259 0.579-0.579v-1.876c0-0.32-0.259-0.579-0.579-0.579h-1.876z"></path>
            <path d="M24.062 18.483c2.971 0 5.379 2.347 5.379 5.241s-2.408 5.241-5.379 5.241c-2.971 0-5.379-2.347-5.379-5.241s2.408-5.241 5.379-5.241zM24.78 21.517c0-0.32-0.259-0.579-0.579-0.579s-0.579 0.259-0.579 0.579v2.695c0 0.229 0.135 0.436 0.343 0.529l1.379 0.615c0.292 0.13 0.635-0.001 0.765-0.293s-0.001-0.635-0.293-0.765l-1.036-0.462v-2.319z"></path>
        </symbol>
        <symbol id="icon-commitment" viewBox="0 0 32 32">
            <path d="M26.959 14.157c0 6.143-5.744 11.122-12.828 11.122-0.343 0-0.685-0.011-1.027-0.034 1.904 1.712 4.565 2.776 7.509 2.776 1.039 0.002 2.073-0.133 3.077-0.401 0.764 0.388 2.521 1.133 5.477 1.619 0.261 0.042 0.461-0.231 0.358-0.475-0.464-1.097-0.883-2.558-1.010-3.891 1.608-1.613 2.581-3.725 2.581-6.034 0-3.154-1.816-5.937-4.581-7.59 0.289 0.927 0.443 1.902 0.443 2.909z"></path>
            <path d="M25.48 14.231c0 5.386-5.086 9.751-11.36 9.751-1.126 0.002-2.247-0.142-3.334-0.426-0.828 0.412-2.732 1.204-5.936 1.719-0.283 0.045-0.5-0.245-0.388-0.504 0.503-1.165 0.957-2.716 1.095-4.132-1.742-1.713-2.797-3.956-2.797-6.408 0-5.386 5.086-9.751 11.36-9.751s11.36 4.366 11.36 9.751zM9.579 11.411c-0.402 0-0.727 0.326-0.727 0.727s0.326 0.727 0.727 0.727h5.241c0.402 0 0.727-0.326 0.727-0.727s-0.326-0.727-0.727-0.727h-5.241zM9.579 16.376c-0.402 0-0.727 0.326-0.727 0.727s0.326 0.727 0.727 0.727h9.379c0.402 0 0.727-0.326 0.727-0.727s-0.326-0.727-0.727-0.727h-9.379z"></path>
        </symbol>
        <symbol id="icon-reviews-star" viewBox="0 0 33 32">
            <path d="M14.928 5.352c0.547-1.685 2.931-1.685 3.478 0l1.443 4.44c0.245 0.753 0.947 1.264 1.739 1.264h4.668c1.771 0 2.508 2.267 1.075 3.308l-3.777 2.744c-0.641 0.466-0.909 1.291-0.664 2.044l1.443 4.44c0.547 1.685-1.381 3.086-2.814 2.044l-3.777-2.744c-0.641-0.466-1.509-0.466-2.15 0l-3.777 2.744c-1.433 1.041-3.361-0.36-2.814-2.044l1.443-4.44c0.245-0.753-0.023-1.579-0.664-2.044l-3.777-2.744c-1.433-1.041-0.697-3.308 1.075-3.308h4.668c0.792 0 1.494-0.51 1.739-1.264l1.443-4.44z"></path>
        </symbol>
        <symbol id="icon-arrow-left" viewBox="0 0 33 32">
            <path stroke-linejoin="round" stroke-linecap="round" stroke-miterlimit="4" stroke-width="2.6667" d="M26 16h-18.667"></path>
            <path stroke-linejoin="round" stroke-linecap="round" stroke-miterlimit="4" stroke-width="2.6667" d="M16.667 25.333l-9.333-9.333 9.333-9.333"></path>
        </symbol>
        <symbol id="icon-arrow-right" viewBox="0 0 33 32">
            <path stroke-linejoin="round" stroke-linecap="round" stroke-miterlimit="4" stroke-width="2.6667" d="M7.333 16h18.667"></path>
            <path stroke-linejoin="round" stroke-linecap="round" stroke-miterlimit="4" stroke-width="2.6667" d="M16.667 6.667l9.333 9.333-9.333 9.333"></path>
        </symbol>
    </defs>
</svg>
