<svg width="25" height="24" viewBox="0 0 25 24" fill="none" xmlns="http://www.w3.org/2000/svg">
<path d="M11.1957 4.01404C11.6062 2.75053 13.3938 2.75053 13.8043 4.01404L14.8863 7.34396C15.0699 7.90902 15.5964 8.29159 16.1906 8.29159H19.6918C21.0204 8.29159 21.5728 9.99164 20.498 10.7725L17.6654 12.8305C17.1847 13.1798 16.9836 13.7988 17.1672 14.3638L18.2491 17.6938C18.6596 18.9573 17.2135 20.008 16.1387 19.2271L13.3061 17.1691C12.8254 16.8198 12.1746 16.8198 11.6939 17.1691L8.86129 19.2271C7.78648 20.008 6.34034 18.9573 6.75088 17.6938L7.83283 14.3638C8.01643 13.7988 7.8153 13.1798 7.33463 12.8305L4.50203 10.7725C3.42723 9.99164 3.9796 8.29159 5.30814 8.29159H8.80942C9.40356 8.29159 9.93013 7.90902 10.1137 7.34396L11.1957 4.01404Z" fill="#FFA928"/>
</svg>
