<svg width="67" height="67" viewBox="0 0 67 67" fill="none" xmlns="http://www.w3.org/2000/svg">
<path d="M29.9822 39.1082C29.9975 39.0965 30.0123 39.0842 30.0267 39.0715C30.0405 39.0594 30.0539 39.0469 30.0669 39.0339C30.122 38.9788 30.1699 38.9178 30.2105 38.8511C30.324 38.6644 30.3808 38.4324 30.3808 38.155C30.3808 37.7783 30.2761 37.4905 30.0669 37.2917C29.947 37.1719 29.793 37.0882 29.6048 37.0406C29.4807 37.0092 29.3418 36.9935 29.1879 36.9935H26.0422L27.8538 35.2042C28.1165 34.9472 28.3497 34.698 28.5532 34.4565C28.573 34.433 28.5925 34.4096 28.6117 34.3863C28.757 34.21 28.8863 34.038 28.9996 33.8701C29.2926 33.4516 29.5018 33.033 29.6274 32.6145C29.7634 32.1959 29.8314 31.7669 29.8314 31.3275C29.8314 30.6264 29.6797 30.0404 29.3763 29.5696C29.0728 29.0882 28.6281 28.722 28.0422 28.4709C27.7782 28.3557 27.4846 28.267 27.1612 28.2046C26.7795 28.131 26.3564 28.0942 25.8919 28.0942C25.7559 28.0942 25.6198 28.0981 25.4838 28.1059C25.0966 28.128 24.7095 28.1817 24.3223 28.2668C24.2742 28.2777 24.2262 28.2891 24.1783 28.3012L24.1401 28.311L24.0994 28.3218C23.8838 28.3797 23.6711 28.4507 23.4611 28.535C23.2521 28.6188 23.0459 28.7158 22.8425 28.8258L22.8313 28.8319C22.795 28.8514 22.7603 28.8717 22.727 28.8927C22.5105 29.0293 22.3569 29.1974 22.2662 29.3969C22.1616 29.6167 22.125 29.8416 22.1564 30.0718C22.1982 30.302 22.2924 30.5061 22.4389 30.6839C22.5958 30.8618 22.7842 30.9769 23.0039 31.0292C23.2341 31.0816 23.4905 31.0449 23.773 30.9194C23.8214 30.8944 23.8694 30.8706 23.9168 30.8479L23.9249 30.8441C24.1171 30.7528 24.3016 30.6807 24.4785 30.6276C24.548 30.6068 24.6163 30.589 24.6833 30.5741C24.7302 30.5619 24.7766 30.5508 24.8226 30.5407L24.8323 30.5385C25.0601 30.489 25.2773 30.4642 25.4838 30.4642C25.63 30.4642 25.766 30.473 25.8919 30.4906C26.11 30.521 26.2976 30.5779 26.4547 30.6611C26.5118 30.6914 26.5649 30.7252 26.6139 30.7624C26.8755 30.9612 27.0063 31.2594 27.0063 31.6571C27.0063 31.971 26.9173 32.2849 26.7394 32.5988C26.6965 32.6793 26.6457 32.7639 26.5869 32.8526C26.4677 33.0327 26.316 33.2297 26.1316 33.4438L26.1239 33.4527C26.047 33.5418 25.9644 33.6339 25.8762 33.7289L23.1295 36.6011C23.0066 36.7301 22.8964 36.8609 22.7988 36.9935L22.786 37.0109L22.7742 37.0274C22.7151 37.1096 22.6609 37.1924 22.6115 37.276C22.486 37.5062 22.4232 37.7678 22.4232 38.0608C22.4232 38.4793 22.5226 38.7985 22.7214 39.0182C22.8653 39.1621 23.0685 39.2565 23.331 39.3014C23.4504 39.3219 23.582 39.3321 23.7259 39.3321H29.1879C29.5234 39.3321 29.7881 39.2575 29.9822 39.1082Z" fill="#9EA3B5"/>
<path fill-rule="evenodd" clip-rule="evenodd" d="M35.8523 37.4801V38.0451C35.8523 38.516 35.9727 38.8717 36.2133 39.1124C36.4645 39.353 36.8098 39.4734 37.2492 39.4734C37.6966 39.4734 38.0354 39.3544 38.2655 39.1164L38.2694 39.1124C38.4052 38.9707 38.5026 38.7958 38.5618 38.5876C38.6076 38.4266 38.6304 38.2458 38.6304 38.0451V37.4801H39.0071C39.381 37.4801 39.667 37.3968 39.8651 37.2302C39.8777 37.2197 39.8899 37.2088 39.9018 37.1975C39.9836 37.1238 40.0495 37.0373 40.0994 36.938C40.1177 36.9013 40.134 36.8629 40.148 36.8228C40.1931 36.6937 40.2157 36.5466 40.2157 36.3814C40.2157 36.1167 40.1542 35.8981 40.0312 35.7256C39.9992 35.6807 39.963 35.639 39.9226 35.6003C39.9158 35.5937 39.9088 35.5873 39.9018 35.5809C39.8899 35.5697 39.8777 35.5588 39.8651 35.5482C39.8218 35.5118 39.7742 35.4793 39.7224 35.4508C39.5376 35.3492 39.2992 35.2984 39.0071 35.2984H38.6304V29.5539C38.6304 29.0725 38.5153 28.7168 38.2851 28.4866C38.0549 28.2459 37.741 28.1256 37.3434 28.1256C36.9876 28.1256 36.679 28.1988 36.4174 28.3453C36.1558 28.4918 35.9203 28.722 35.7111 29.0359L31.8814 34.6235C31.8192 34.7101 31.7618 34.7935 31.7094 34.8738C31.6351 34.9875 31.5707 35.0949 31.5161 35.1959C31.4972 35.2308 31.4795 35.265 31.463 35.2984C31.4305 35.3641 31.4026 35.4269 31.3791 35.4867C31.3148 35.644 31.2724 35.8062 31.2521 35.9733C31.2488 35.9996 31.2462 36.026 31.2441 36.0526C31.2423 36.0745 31.2409 36.0965 31.2399 36.1186C31.2386 36.1485 31.2379 36.1785 31.2379 36.2087C31.2379 36.6377 31.3634 36.9569 31.6146 37.1661C31.8762 37.3754 32.2372 37.4801 32.6976 37.4801H35.8523ZM35.8523 35.2984V32.2465L33.7958 35.2984H35.8523Z" fill="#9EA3B5"/>
<path d="M40.786 33.366C40.7992 33.2961 40.8188 33.2321 40.8451 33.174C40.8785 33.0999 40.9226 33.0354 40.9774 32.9807C41.032 32.9261 41.0953 32.8821 41.1674 32.8486C41.2787 32.797 41.4107 32.7705 41.5636 32.7693L41.5748 32.7693C41.6 32.7693 41.6246 32.7699 41.6486 32.7712C41.6582 32.7717 41.6676 32.7723 41.677 32.773C41.8912 32.7893 42.0593 32.8585 42.1815 32.9807C42.2085 33.0065 42.233 33.0346 42.255 33.0648C42.3409 33.1825 42.3892 33.333 42.3998 33.5166C42.4013 33.5425 42.4021 33.5692 42.4021 33.5965V35.3618C42.4515 35.295 42.5054 35.2331 42.5637 35.176C42.6576 35.0842 42.763 35.005 42.8801 34.9385C42.985 34.8802 43.0953 34.833 43.211 34.7969C43.2412 34.7874 43.2719 34.7787 43.3029 34.7707C43.4646 34.7294 43.6361 34.7087 43.8176 34.7087C44.1791 34.7087 44.4763 34.7792 44.7092 34.9201C44.7777 34.9598 44.8411 35.0063 44.8996 35.0598C44.9081 35.0676 44.9166 35.0756 44.9249 35.0837L44.9379 35.0966L44.9391 35.0977C45.0608 35.2205 45.1588 35.3758 45.2331 35.5635C45.3495 35.8515 45.4078 36.2161 45.4078 36.6573V38.5876C45.4078 38.8572 45.3373 39.0625 45.1963 39.2034C45.1074 39.2924 44.994 39.3533 44.8562 39.3861C44.7757 39.4053 44.6868 39.4148 44.5897 39.4148C44.3262 39.4148 44.124 39.3444 43.983 39.2034C43.8421 39.0625 43.7716 38.8572 43.7716 38.5876V36.7217C43.7716 36.6997 43.7713 36.6783 43.7707 36.6573C43.7696 36.6206 43.7676 36.5854 43.7646 36.5517L43.7621 36.5261L43.7603 36.5106L43.758 36.4917L43.7565 36.4811C43.7502 36.4355 43.7418 36.3932 43.7314 36.3542C43.7152 36.2936 43.6942 36.2409 43.6683 36.1961L43.6619 36.1855C43.6504 36.1666 43.6379 36.1493 43.6246 36.1334C43.5889 36.0883 43.5464 36.0519 43.497 36.0243C43.4906 36.0207 43.4841 36.0173 43.4776 36.0141C43.4263 35.9886 43.3681 35.972 43.3029 35.9641C43.2737 35.9605 43.243 35.9588 43.211 35.9588C43.1362 35.9588 43.0661 35.9662 43.0005 35.981C42.9047 36.0026 42.8187 36.0399 42.7423 36.0931C42.6994 36.123 42.6595 36.1579 42.6227 36.1978C42.5706 36.252 42.5277 36.3132 42.494 36.3814C42.4452 36.4802 42.4158 36.5937 42.4059 36.7217C42.4034 36.7544 42.4021 36.7881 42.4021 36.8228V38.5876C42.4021 39.1391 42.1263 39.4148 41.5748 39.4148C41.4822 39.4148 41.397 39.4057 41.3194 39.3874C41.2936 39.3813 41.2687 39.3743 41.2445 39.3662C41.1566 39.3366 41.0797 39.2937 41.014 39.2373C41.0066 39.231 40.9994 39.2245 40.9923 39.2179C40.9872 39.2131 40.9823 39.2083 40.9774 39.2034C40.8364 39.0625 40.766 38.8572 40.766 38.5876V33.5965C40.766 33.5136 40.7726 33.4368 40.786 33.366Z" fill="#9EA3B5"/>
<path fill-rule="evenodd" clip-rule="evenodd" d="M0.166992 33.5996C0.166992 15.1898 15.0902 0.266602 33.5 0.266602C51.9098 0.266602 66.833 15.1898 66.833 33.5996C66.833 52.0094 51.9098 66.9326 33.5 66.9326C15.0902 66.9326 0.166992 52.0094 0.166992 33.5996ZM20.9275 40.8121C20.8976 40.7822 20.8685 40.7516 20.8402 40.7203C20.0731 39.8725 19.8862 38.8498 19.8862 38.0608C19.8862 37.394 20.0326 36.7061 20.3843 36.0612C20.3983 36.0357 20.4126 36.0104 20.4274 35.9854C20.6734 35.569 20.9679 35.1922 21.2924 34.8515L21.2959 34.8477L22.5584 33.5276C22.5197 33.5201 22.4807 33.512 22.4417 33.5031L22.4163 33.4972C21.6609 33.3174 21.0214 32.9119 20.5366 32.3625C20.5175 32.3409 20.4988 32.3189 20.4805 32.2967C20.0545 31.7794 19.7784 31.1749 19.6603 30.5256C19.6536 30.4888 19.6477 30.4517 19.6427 30.4146C19.5423 29.6786 19.6668 28.9641 19.9664 28.3258C20.348 27.5006 20.9813 26.9477 21.6236 26.6008C22.3012 26.233 23.0168 25.9598 23.7666 25.7915L23.7772 25.7891C24.4752 25.6356 25.1811 25.5572 25.8919 25.5572C26.976 25.5572 28.0612 25.7129 29.0491 26.1423C30.0417 26.5692 30.9075 27.2463 31.5157 28.206C31.8229 28.6855 32.0348 29.1941 32.1705 29.7142L33.6106 27.6131C33.9854 27.055 34.4937 26.5149 35.1778 26.1318C35.8831 25.7368 36.6347 25.5886 37.3434 25.5886C38.281 25.5886 39.3017 25.8912 40.0994 26.7132C40.9745 27.6025 41.1674 28.7261 41.1674 29.5539V30.2545C41.3081 30.2391 41.4446 30.2323 41.5748 30.2323C42.2807 30.2323 43.2047 30.4285 43.9562 31.1677C44.2996 31.5023 44.5315 31.8746 44.6833 32.2482C45.1178 32.328 45.5682 32.4785 46.0019 32.7371C46.7966 33.2045 47.3021 33.9024 47.5884 34.6207C47.8642 35.3068 47.9447 36.0191 47.9447 36.6573V38.5876C47.9447 39.2861 47.7554 40.2322 46.9903 40.9973C46.2354 41.7522 45.3015 41.9518 44.5897 41.9518C44.1444 41.9518 43.6123 41.8737 43.0914 41.6305C42.5478 41.8832 42.0004 41.9518 41.5748 41.9518C40.9699 41.9518 40.2286 41.8056 39.5676 41.3257C38.8153 41.8516 37.9636 42.0103 37.2492 42.0103C36.3358 42.0103 35.2972 41.7483 34.458 40.944C34.445 40.9316 34.4321 40.919 34.4194 40.9063C34.1414 40.6283 33.9287 40.327 33.7677 40.017H32.6976C32.6227 40.017 32.5465 40.0155 32.4691 40.0122C32.3155 40.297 32.116 40.5726 31.8608 40.8278C31.0299 41.6587 29.9889 41.8691 29.1879 41.8691H23.7259C22.9567 41.8691 21.8196 41.7042 20.9275 40.8121ZM28.0348 15.2694C28.6977 15.063 29.3626 14.8933 30.0274 14.7592C40.6464 12.6895 50.981 19.5449 53.1802 30.1677C55.0059 38.9861 50.6551 47.6478 43.0785 51.661C43.0073 51.689 42.9368 51.7206 42.8672 51.7559C42.0796 52.1549 41.2558 52.5058 40.398 52.8033L41.0067 51.1863C41.4747 49.9428 40.8461 48.5553 39.6026 48.0873C38.3591 47.6192 36.9716 48.2479 36.5036 49.4914L34.1123 55.8444C33.7236 56.8774 34.0875 58.0423 34.9951 58.6703L40.3584 62.3809C41.451 63.1369 42.9496 62.864 43.7055 61.7713C44.4615 60.6787 44.1886 59.1801 43.0959 58.4241L41.7166 57.4698C46.3403 55.9062 50.2519 53.0515 53.1236 49.4047C53.2433 49.2998 53.3544 49.1815 53.4545 49.05C55.1283 46.8529 56.4234 44.3866 57.282 41.7614C57.3479 41.5598 57.3858 41.3559 57.3978 41.1537C58.2975 38.1204 58.621 34.8777 58.2667 31.58C58.305 31.3482 58.3098 31.1069 58.2766 30.862C58.0941 29.5151 57.7974 28.1669 57.3808 26.8291C56.9643 25.4913 56.4432 24.2129 55.8288 23.0005C55.7179 22.7816 55.5781 22.5869 55.4165 22.4187C53.8605 19.5568 51.7677 17.0734 49.2981 15.0734C49.1662 14.8956 49.0073 14.7333 48.8224 14.5924C46.6252 12.9186 44.159 11.6235 41.5338 10.765C41.3585 10.7076 41.1814 10.6715 41.0053 10.6551C37.8295 9.68032 34.4185 9.33879 30.9512 9.74817C30.8466 9.7486 30.7408 9.75584 30.6343 9.77028C29.5643 9.91528 28.4933 10.1324 27.4274 10.4244C20.8782 12.1774 15.6009 16.4638 12.4464 21.9862C12.332 22.1865 12.2495 22.3963 12.1974 22.6097C11.5342 23.859 10.9782 25.1651 10.5373 26.5132C10.1235 27.7786 10.8138 29.1399 12.0792 29.5537C13.3446 29.9676 14.7059 29.2773 15.1197 28.0119C15.8106 25.8994 16.8531 23.9141 18.1999 22.1461C18.3176 21.9917 18.4138 21.8275 18.4889 21.6573C20.1458 19.6274 22.2094 17.9183 24.5893 16.6672C24.7121 16.6282 24.8334 16.5789 24.9521 16.5187C25.9257 16.0254 26.9547 15.6057 28.0348 15.2694ZM11.6077 34.7001C12.927 34.5213 14.1414 35.4459 14.3202 36.7652C14.4668 37.8467 14.7054 38.9321 15.0417 40.0122C15.378 41.0923 15.7977 42.1213 16.2911 43.0948C16.8928 44.2824 16.418 45.733 15.2304 46.3348C14.0428 46.9365 12.5922 46.4616 11.9904 45.2741C11.3761 44.0617 10.855 42.7833 10.4385 41.4455C10.0219 40.1077 9.72514 38.7594 9.54263 37.4126C9.36384 36.0933 10.2884 34.8789 11.6077 34.7001ZM21.9185 49.847C20.8594 49.0402 19.3469 49.2447 18.5401 50.3038C17.7333 51.3628 17.9378 52.8754 18.9969 53.6822C21.1941 55.3559 23.6603 56.651 26.2855 57.5096C27.5509 57.9235 28.9122 57.2331 29.3261 55.9677C29.7399 54.7024 29.0496 53.3411 27.7842 52.9272C25.6718 52.2363 23.6865 51.1938 21.9185 49.847Z" fill="#9EA3B5"/>
<path d="M23.7259 39.3321C23.2655 39.3321 22.9307 39.2275 22.7214 39.0182C22.5226 38.7985 22.4232 38.4793 22.4232 38.0608C22.4232 37.7678 22.486 37.5062 22.6115 37.276C22.7476 37.0458 22.9202 36.8208 23.1295 36.6011L25.8762 33.7289C26.2843 33.2894 26.572 32.9127 26.7394 32.5988C26.9173 32.2849 27.0063 31.971 27.0063 31.6571C27.0063 31.2594 26.8755 30.9612 26.6139 30.7624C26.3523 30.5636 25.9756 30.4642 25.4838 30.4642C25.2327 30.4642 24.9659 30.5008 24.6833 30.5741C24.4008 30.6369 24.0974 30.752 23.773 30.9194C23.4905 31.0449 23.2341 31.0816 23.0039 31.0292C22.7842 30.9769 22.5958 30.8618 22.4389 30.6839C22.2924 30.5061 22.1982 30.302 22.1564 30.0718C22.125 29.8416 22.1616 29.6167 22.2662 29.3969C22.3709 29.1667 22.5592 28.9784 22.8313 28.8319C23.3126 28.5703 23.8096 28.3819 24.3223 28.2668C24.8455 28.1517 25.3687 28.0942 25.8919 28.0942C26.7499 28.0942 27.4667 28.2198 28.0422 28.4709C28.6281 28.722 29.0728 29.0882 29.3763 29.5696C29.6797 30.0404 29.8314 30.6264 29.8314 31.3275C29.8314 31.7669 29.7634 32.1959 29.6274 32.6145C29.5018 33.033 29.2926 33.4516 28.9996 33.8701C28.7171 34.2887 28.3351 34.7334 27.8538 35.2042L25.3112 37.7156V36.9936L29.1879 36.9935C29.5751 36.9935 29.8681 37.0929 30.0669 37.2917C30.2761 37.4905 30.3808 37.7783 30.3808 38.155C30.3808 38.5316 30.2761 38.8246 30.0669 39.0339C29.8681 39.2327 29.5751 39.3321 29.1879 39.3321H23.7259Z" fill="#9EA3B5"/>
<path d="M37.2492 39.4734C36.8098 39.4734 36.4645 39.353 36.2133 39.1124C35.9727 38.8717 35.8523 38.516 35.8523 38.0451V37.4801H32.6976C32.2372 37.4801 31.8762 37.3754 31.6146 37.1661C31.3634 36.9569 31.2379 36.6377 31.2379 36.2087C31.2379 35.9576 31.285 35.7169 31.3791 35.4867C31.4733 35.2461 31.6407 34.9583 31.8814 34.6235L35.7111 29.0359C35.9203 28.722 36.1558 28.4918 36.4174 28.3453C36.679 28.1988 36.9876 28.1256 37.3434 28.1256C37.741 28.1256 38.0549 28.2459 38.2851 28.4866C38.5153 28.7168 38.6304 29.0725 38.6304 29.5539V35.2984H39.0071C39.4047 35.2984 39.7029 35.3926 39.9018 35.5809C40.111 35.7693 40.2157 36.0361 40.2157 36.3814C40.2157 36.7371 40.111 37.0092 39.9018 37.1975C39.7029 37.3859 39.4047 37.4801 39.0071 37.4801H38.6304V38.0451C38.6304 38.5055 38.5101 38.8613 38.2694 39.1124C38.0392 39.353 37.6992 39.4734 37.2492 39.4734ZM35.8523 35.2984L35.8524 31.5944H36.2919L33.3411 35.9734V35.2985L35.8523 35.2984Z" fill="#9EA3B5"/>
<path d="M41.5748 39.4148C41.3175 39.4148 41.1183 39.3444 40.9774 39.2034C40.8364 39.0625 40.766 38.8572 40.766 38.5876V33.5965C40.766 33.3269 40.8364 33.1216 40.9774 32.9807C41.1183 32.8397 41.3175 32.7693 41.5748 32.7693C41.8383 32.7693 42.0405 32.8397 42.1815 32.9807C42.3286 33.1216 42.4021 33.3269 42.4021 33.5965L42.4021 35.6004H42.2551C42.4021 35.3124 42.6104 35.0917 42.8801 34.9385C43.1558 34.7853 43.4683 34.7087 43.8176 34.7087C44.1791 34.7087 44.4763 34.7792 44.7092 34.9201C44.942 35.0549 45.1167 35.2694 45.2331 35.5635C45.3495 35.8515 45.4078 36.2161 45.4078 36.6573V38.5876C45.4078 38.8572 45.3373 39.0625 45.1963 39.2034C45.0554 39.3444 44.8532 39.4148 44.5897 39.4148C44.3262 39.4148 44.124 39.3444 43.983 39.2034C43.8421 39.0625 43.7716 38.8572 43.7716 38.5876V36.7217C43.7716 36.4459 43.7226 36.2498 43.6246 36.1334C43.5327 36.017 43.3948 35.9588 43.211 35.9588C42.9658 35.9588 42.7698 36.0384 42.6227 36.1978C42.4756 36.351 42.4021 36.5593 42.4021 36.8228V38.5876C42.4021 39.1391 42.1263 39.4148 41.5748 39.4148Z" fill="#9EA3B5"/>
</svg>
